{
    "asset" : {
        "generator" : "Khronos glTF Blender I/O v1.7.33",
        "version" : "2.0"
    },
    "scene" : 0,
    "scenes" : [
        {
            "name" : "Scene",
            "nodes" : [
                0,
                1,
                2,
                3,
                4
            ]
        }
    ],
    "nodes" : [
        {
            "mesh" : 0,
            "name" : "UpperGround"
        },
        {
            "mesh" : 1,
            "name" : "LowerGround",
            "translation" : [
                0,
                -1,
                0
            ]
        },
        {
            "mesh" : 2,
            "name" : "Border"
        },
        {
            "mesh" : 3,
            "name" : "Stairs",
            "scale" : [
                1,
                0.8728230595588684,
                1
            ]
        },
        {
            "mesh" : 4,
            "name" : "StairsCollision"
        }
    ],
    "materials" : [
        {
            "doubleSided" : true,
            "name" : "GroundTiles",
            "normalTexture" : {
                "index" : 0,
                "scale" : 2.200000047683716
            },
            "pbrMetallicRoughness" : {
                "baseColorTexture" : {
                    "index" : 1
                },
                "metallicFactor" : 0,
                "roughnessFactor" : 0.7590909004211426
            }
        },
        {
            "doubleSided" : true,
            "name" : "Border",
            "normalTexture" : {
                "index" : 2,
                "scale" : 1.5
            },
            "pbrMetallicRoughness" : {
                "baseColorTexture" : {
                    "index" : 3
                },
                "metallicFactor" : 0
            }
        },
        {
            "doubleSided" : true,
            "name" : "Treppen",
            "normalTexture" : {
                "index" : 4
            },
            "pbrMetallicRoughness" : {
                "baseColorTexture" : {
                    "index" : 5
                },
                "metallicFactor" : 0,
                "roughnessFactor" : 0.7590909004211426
            }
        },
        {
            "doubleSided" : true,
            "name" : "Material",
            "pbrMetallicRoughness" : {
                "baseColorFactor" : [
                    0.8000000715255737,
                    0,
                    0.6728983521461487,
                    1
                ],
                "metallicFactor" : 0,
                "roughnessFactor" : 0.5
            }
        }
    ],
    "meshes" : [
        {
            "name" : "Plane",
            "primitives" : [
                {
                    "attributes" : {
                        "POSITION" : 0,
                        "NORMAL" : 1,
                        "TEXCOORD_0" : 2
                    },
                    "indices" : 3,
                    "material" : 0
                }
            ]
        },
        {
            "name" : "Plane.001",
            "primitives" : [
                {
                    "attributes" : {
                        "POSITION" : 4,
                        "NORMAL" : 5,
                        "TEXCOORD_0" : 6
                    },
                    "indices" : 7,
                    "material" : 0
                }
            ]
        },
        {
            "name" : "Cube",
            "primitives" : [
                {
                    "attributes" : {
                        "POSITION" : 8,
                        "NORMAL" : 9,
                        "TEXCOORD_0" : 10
                    },
                    "indices" : 11,
                    "material" : 1
                }
            ]
        },
        {
            "name" : "Cube.003",
            "primitives" : [
                {
                    "attributes" : {
                        "POSITION" : 12,
                        "NORMAL" : 13,
                        "TEXCOORD_0" : 14
                    },
                    "indices" : 15,
                    "material" : 2
                }
            ]
        },
        {
            "name" : "Plane.003",
            "primitives" : [
                {
                    "attributes" : {
                        "POSITION" : 16,
                        "NORMAL" : 17,
                        "TEXCOORD_0" : 18
                    },
                    "indices" : 19,
                    "material" : 3
                }
            ]
        }
    ],
    "textures" : [
        {
            "sampler" : 0,
            "source" : 0
        },
        {
            "sampler" : 0,
            "source" : 1
        },
        {
            "sampler" : 0,
            "source" : 2
        },
        {
            "sampler" : 0,
            "source" : 3
        },
        {
            "sampler" : 0,
            "source" : 4
        },
        {
            "sampler" : 0,
            "source" : 5
        }
    ],
    "images" : [
        {
            "mimeType" : "image/jpeg",
            "name" : "TilesTerracottaSmallNRM",
            "uri" : "TilesTerracottaSmallNRM.jpg"
        },
        {
            "mimeType" : "image/jpeg",
            "name" : "TilesTerracottaSmall",
            "uri" : "TilesTerracottaSmall.jpg"
        },
        {
            "mimeType" : "image/jpeg",
            "name" : "RockBrown005_NRM_3K",
            "uri" : "RockBrown005_NRM_3K.jpg"
        },
        {
            "mimeType" : "image/png",
            "name" : "BorderTextureBake",
            "uri" : "BorderTextureBake.png"
        },
        {
            "mimeType" : "image/jpeg",
            "name" : "RockSandstone001_NRM_1K",
            "uri" : "RockSandstone001_NRM_1K.jpg"
        },
        {
            "mimeType" : "image/png",
            "name" : "BigRoomStairsTextureBake",
            "uri" : "BigRoomStairsTextureBake.png"
        }
    ],
    "accessors" : [
        {
            "bufferView" : 0,
            "componentType" : 5126,
            "count" : 48,
            "max" : [
                12,
                0,
                12
            ],
            "min" : [
                -12,
                0,
                -12
            ],
            "type" : "VEC3"
        },
        {
            "bufferView" : 1,
            "componentType" : 5126,
            "count" : 48,
            "type" : "VEC3"
        },
        {
            "bufferView" : 2,
            "componentType" : 5126,
            "count" : 48,
            "type" : "VEC2"
        },
        {
            "bufferView" : 3,
            "componentType" : 5123,
            "count" : 72,
            "type" : "SCALAR"
        },
        {
            "bufferView" : 4,
            "componentType" : 5126,
            "count" : 16,
            "max" : [
                6,
                0,
                6
            ],
            "min" : [
                -6,
                0,
                -6
            ],
            "type" : "VEC3"
        },
        {
            "bufferView" : 5,
            "componentType" : 5126,
            "count" : 16,
            "type" : "VEC3"
        },
        {
            "bufferView" : 6,
            "componentType" : 5126,
            "count" : 16,
            "type" : "VEC2"
        },
        {
            "bufferView" : 7,
            "componentType" : 5123,
            "count" : 24,
            "type" : "SCALAR"
        },
        {
            "bufferView" : 8,
            "componentType" : 5126,
            "count" : 560,
            "max" : [
                6.288806438446045,
                1.0932707786560059,
                6.287899017333984
            ],
            "min" : [
                -6.288806438446045,
                -1.0073179006576538,
                -6.287899017333984
            ],
            "type" : "VEC3"
        },
        {
            "bufferView" : 9,
            "componentType" : 5126,
            "count" : 560,
            "type" : "VEC3"
        },
        {
            "bufferView" : 10,
            "componentType" : 5126,
            "count" : 560,
            "type" : "VEC2"
        },
        {
            "bufferView" : 11,
            "componentType" : 5123,
            "count" : 1464,
            "type" : "SCALAR"
        },
        {
            "bufferView" : 12,
            "componentType" : 5126,
            "count" : 240,
            "max" : [
                1.3261487483978271,
                0.004534728825092316,
                6.014520168304443
            ],
            "min" : [
                -1.3261487483978271,
                -1.1747407913208008,
                -6.014520168304443
            ],
            "type" : "VEC3"
        },
        {
            "bufferView" : 13,
            "componentType" : 5126,
            "count" : 240,
            "type" : "VEC3"
        },
        {
            "bufferView" : 14,
            "componentType" : 5126,
            "count" : 240,
            "type" : "VEC2"
        },
        {
            "bufferView" : 15,
            "componentType" : 5123,
            "count" : 360,
            "type" : "SCALAR"
        },
        {
            "bufferView" : 16,
            "componentType" : 5126,
            "count" : 8,
            "max" : [
                1.4729083776474,
                0,
                6
            ],
            "min" : [
                -1.458343744277954,
                -1,
                -6
            ],
            "type" : "VEC3"
        },
        {
            "bufferView" : 17,
            "componentType" : 5126,
            "count" : 8,
            "type" : "VEC3"
        },
        {
            "bufferView" : 18,
            "componentType" : 5126,
            "count" : 8,
            "type" : "VEC2"
        },
        {
            "bufferView" : 19,
            "componentType" : 5123,
            "count" : 12,
            "type" : "SCALAR"
        }
    ],
    "bufferViews" : [
        {
            "buffer" : 0,
            "byteLength" : 576,
            "byteOffset" : 0
        },
        {
            "buffer" : 0,
            "byteLength" : 576,
            "byteOffset" : 576
        },
        {
            "buffer" : 0,
            "byteLength" : 384,
            "byteOffset" : 1152
        },
        {
            "buffer" : 0,
            "byteLength" : 144,
            "byteOffset" : 1536
        },
        {
            "buffer" : 0,
            "byteLength" : 192,
            "byteOffset" : 1680
        },
        {
            "buffer" : 0,
            "byteLength" : 192,
            "byteOffset" : 1872
        },
        {
            "buffer" : 0,
            "byteLength" : 128,
            "byteOffset" : 2064
        },
        {
            "buffer" : 0,
            "byteLength" : 48,
            "byteOffset" : 2192
        },
        {
            "buffer" : 0,
            "byteLength" : 6720,
            "byteOffset" : 2240
        },
        {
            "buffer" : 0,
            "byteLength" : 6720,
            "byteOffset" : 8960
        },
        {
            "buffer" : 0,
            "byteLength" : 4480,
            "byteOffset" : 15680
        },
        {
            "buffer" : 0,
            "byteLength" : 2928,
            "byteOffset" : 20160
        },
        {
            "buffer" : 0,
            "byteLength" : 2880,
            "byteOffset" : 23088
        },
        {
            "buffer" : 0,
            "byteLength" : 2880,
            "byteOffset" : 25968
        },
        {
            "buffer" : 0,
            "byteLength" : 1920,
            "byteOffset" : 28848
        },
        {
            "buffer" : 0,
            "byteLength" : 720,
            "byteOffset" : 30768
        },
        {
            "buffer" : 0,
            "byteLength" : 96,
            "byteOffset" : 31488
        },
        {
            "buffer" : 0,
            "byteLength" : 96,
            "byteOffset" : 31584
        },
        {
            "buffer" : 0,
            "byteLength" : 64,
            "byteOffset" : 31680
        },
        {
            "buffer" : 0,
            "byteLength" : 24,
            "byteOffset" : 31744
        }
    ],
    "samplers" : [
        {
            "magFilter" : 9729,
            "minFilter" : 9987
        }
    ],
    "buffers" : [
        {
            "byteLength" : 31768,
            "uri" : "BigRoomLayout.bin"
        }
    ]
}
