{
    "asset" : {
        "generator" : "Khronos glTF Blender I/O v1.7.33",
        "version" : "2.0"
    },
    "scene" : 0,
    "scenes" : [
        {
            "name" : "Scene",
            "nodes" : [
                0
            ]
        }
    ],
    "nodes" : [
        {
            "mesh" : 0,
            "name" : "WallWithArc",
            "scale" : [
                0.9988768696784973,
                0.9988768696784973,
                0.9988768696784973
            ],
            "translation" : [
                0,
                2,
                0
            ]
        }
    ],
    "materials" : [
        {
            "doubleSided" : true,
            "name" : "StoneWallLowPoly",
            "normalTexture" : {
                "index" : 0
            },
            "pbrMetallicRoughness" : {
                "baseColorTexture" : {
                    "index" : 1
                },
                "metallicFactor" : 0,
                "roughnessFactor" : 0.9045454859733582
            }
        },
        {
            "doubleSided" : true,
            "name" : "JustTexture",
            "pbrMetallicRoughness" : {
                "baseColorTexture" : {
                    "index" : 2
                },
                "metallicFactor" : 0
            }
        },
        {
            "doubleSided" : true,
            "name" : "LowArc",
            "normalTexture" : {
                "index" : 3,
                "scale" : 1.100000023841858
            },
            "pbrMetallicRoughness" : {
                "baseColorTexture" : {
                    "index" : 4
                },
                "metallicFactor" : 0,
                "roughnessFactor" : 0.8136363625526428
            }
        }
    ],
    "meshes" : [
        {
            "name" : "Cube.002",
            "primitives" : [
                {
                    "attributes" : {
                        "POSITION" : 0,
                        "NORMAL" : 1,
                        "TEXCOORD_0" : 2
                    },
                    "indices" : 3,
                    "material" : 0
                },
                {
                    "attributes" : {
                        "POSITION" : 4,
                        "NORMAL" : 5,
                        "TEXCOORD_0" : 6
                    },
                    "indices" : 7,
                    "material" : 1
                },
                {
                    "attributes" : {
                        "POSITION" : 8,
                        "NORMAL" : 9,
                        "TEXCOORD_0" : 10
                    },
                    "indices" : 11,
                    "material" : 2
                }
            ]
        }
    ],
    "textures" : [
        {
            "sampler" : 0,
            "source" : 0
        },
        {
            "sampler" : 0,
            "source" : 1
        },
        {
            "sampler" : 0,
            "source" : 2
        },
        {
            "sampler" : 0,
            "source" : 3
        },
        {
            "sampler" : 0,
            "source" : 2
        }
    ],
    "images" : [
        {
            "mimeType" : "image/png",
            "name" : "StoneWallWithArcFullNormalBake",
            "uri" : "StoneWallWithArcFullNormalBake.png"
        },
        {
            "mimeType" : "image/jpeg",
            "name" : "RockSandstone001_COL_3K",
            "uri" : "RockSandstone001_COL_3K.jpg"
        },
        {
            "mimeType" : "image/jpeg",
            "name" : "RockSandstone001_COL_1K",
            "uri" : "RockSandstone001_COL_1K.jpg"
        },
        {
            "mimeType" : "image/png",
            "name" : "FullArcNormalBake",
            "uri" : "FullArcNormalBake.png"
        }
    ],
    "accessors" : [
        {
            "bufferView" : 0,
            "componentType" : 5126,
            "count" : 3625,
            "max" : [
                2.001877784729004,
                2.0018787384033203,
                0.20089825987815857
            ],
            "min" : [
                -2.0018787384033203,
                -2.001878261566162,
                -0.2034926861524582
            ],
            "type" : "VEC3"
        },
        {
            "bufferView" : 1,
            "componentType" : 5126,
            "count" : 3625,
            "type" : "VEC3"
        },
        {
            "bufferView" : 2,
            "componentType" : 5126,
            "count" : 3625,
            "type" : "VEC2"
        },
        {
            "bufferView" : 3,
            "componentType" : 5123,
            "count" : 9204,
            "type" : "SCALAR"
        },
        {
            "bufferView" : 4,
            "componentType" : 5126,
            "count" : 40,
            "max" : [
                1.9417834281921387,
                1.9193320274353027,
                0.11881670355796814
            ],
            "min" : [
                -1.9417833089828491,
                -1.9193321466445923,
                -0.11881668865680695
            ],
            "type" : "VEC3"
        },
        {
            "bufferView" : 5,
            "componentType" : 5126,
            "count" : 40,
            "type" : "VEC3"
        },
        {
            "bufferView" : 6,
            "componentType" : 5126,
            "count" : 40,
            "type" : "VEC2"
        },
        {
            "bufferView" : 7,
            "componentType" : 5123,
            "count" : 78,
            "type" : "SCALAR"
        },
        {
            "bufferView" : 8,
            "componentType" : 5126,
            "count" : 3190,
            "max" : [
                1.2075845003128052,
                0.7442564964294434,
                0.31975966691970825
            ],
            "min" : [
                -1.2061232328414917,
                -2.002377986907959,
                -0.3233131468296051
            ],
            "type" : "VEC3"
        },
        {
            "bufferView" : 9,
            "componentType" : 5126,
            "count" : 3190,
            "type" : "VEC3"
        },
        {
            "bufferView" : 10,
            "componentType" : 5126,
            "count" : 3190,
            "type" : "VEC2"
        },
        {
            "bufferView" : 11,
            "componentType" : 5123,
            "count" : 3204,
            "type" : "SCALAR"
        }
    ],
    "bufferViews" : [
        {
            "buffer" : 0,
            "byteLength" : 43500,
            "byteOffset" : 0
        },
        {
            "buffer" : 0,
            "byteLength" : 43500,
            "byteOffset" : 43500
        },
        {
            "buffer" : 0,
            "byteLength" : 29000,
            "byteOffset" : 87000
        },
        {
            "buffer" : 0,
            "byteLength" : 18408,
            "byteOffset" : 116000
        },
        {
            "buffer" : 0,
            "byteLength" : 480,
            "byteOffset" : 134408
        },
        {
            "buffer" : 0,
            "byteLength" : 480,
            "byteOffset" : 134888
        },
        {
            "buffer" : 0,
            "byteLength" : 320,
            "byteOffset" : 135368
        },
        {
            "buffer" : 0,
            "byteLength" : 156,
            "byteOffset" : 135688
        },
        {
            "buffer" : 0,
            "byteLength" : 38280,
            "byteOffset" : 135844
        },
        {
            "buffer" : 0,
            "byteLength" : 38280,
            "byteOffset" : 174124
        },
        {
            "buffer" : 0,
            "byteLength" : 25520,
            "byteOffset" : 212404
        },
        {
            "buffer" : 0,
            "byteLength" : 6408,
            "byteOffset" : 237924
        }
    ],
    "samplers" : [
        {
            "magFilter" : 9729,
            "minFilter" : 9987
        }
    ],
    "buffers" : [
        {
            "byteLength" : 244332,
            "uri" : "BigWallWithArc.bin"
        }
    ]
}
