{
    "asset" : {
        "generator" : "Khronos glTF Blender I/O v1.7.33",
        "version" : "2.0"
    },
    "scene" : 0,
    "scenes" : [
        {
            "name" : "Scene",
            "nodes" : [
                0
            ]
        }
    ],
    "nodes" : [
        {
            "mesh" : 0,
            "name" : "BrokenPillar"
        }
    ],
    "materials" : [
        {
            "doubleSided" : true,
            "name" : "Sandstone",
            "normalTexture" : {
                "index" : 0,
                "scale" : 1.0999999046325684
            },
            "pbrMetallicRoughness" : {
                "baseColorTexture" : {
                    "index" : 1
                },
                "metallicFactor" : 0
            }
        },
        {
            "doubleSided" : true,
            "name" : "Sandy Bricks",
            "normalTexture" : {
                "index" : 2
            },
            "pbrMetallicRoughness" : {
                "baseColorTexture" : {
                    "index" : 3
                },
                "metallicFactor" : 0
            }
        }
    ],
    "meshes" : [
        {
            "name" : "Cube",
            "primitives" : [
                {
                    "attributes" : {
                        "POSITION" : 0,
                        "NORMAL" : 1,
                        "TEXCOORD_0" : 2
                    },
                    "indices" : 3,
                    "material" : 0
                },
                {
                    "attributes" : {
                        "POSITION" : 4,
                        "NORMAL" : 5,
                        "TEXCOORD_0" : 6
                    },
                    "indices" : 7,
                    "material" : 1
                }
            ]
        }
    ],
    "textures" : [
        {
            "sampler" : 0,
            "source" : 0
        },
        {
            "sampler" : 0,
            "source" : 1
        },
        {
            "sampler" : 0,
            "source" : 2
        },
        {
            "sampler" : 0,
            "source" : 3
        }
    ],
    "images" : [
        {
            "mimeType" : "image/jpeg",
            "name" : "RockBrown005_NRM_3K",
            "uri" : "RockBrown005_NRM_3K.jpg"
        },
        {
            "mimeType" : "image/png",
            "name" : "BrokenPillarSandstoneTextureBake",
            "uri" : "BrokenPillarSandstoneTextureBake.png"
        },
        {
            "mimeType" : "image/png",
            "name" : "PillarSandyBricksNormalBake",
            "uri" : "PillarSandyBricksNormalBake.png"
        },
        {
            "mimeType" : "image/png",
            "name" : "PillarSandyBricksBake",
            "uri" : "PillarSandyBricksBake.png"
        }
    ],
    "accessors" : [
        {
            "bufferView" : 0,
            "componentType" : 5126,
            "count" : 1251,
            "max" : [
                0.6354485154151917,
                4.090998649597168,
                0.6354485154151917
            ],
            "min" : [
                -0.6354485154151917,
                0,
                -0.6354485154151917
            ],
            "type" : "VEC3"
        },
        {
            "bufferView" : 1,
            "componentType" : 5126,
            "count" : 1251,
            "type" : "VEC3"
        },
        {
            "bufferView" : 2,
            "componentType" : 5126,
            "count" : 1251,
            "type" : "VEC2"
        },
        {
            "bufferView" : 3,
            "componentType" : 5123,
            "count" : 3099,
            "type" : "SCALAR"
        },
        {
            "bufferView" : 4,
            "componentType" : 5126,
            "count" : 158,
            "max" : [
                0.4075654149055481,
                4.090998649597168,
                0.4075654149055481
            ],
            "min" : [
                -0.4075654149055481,
                0.3045940399169922,
                -0.4075654149055481
            ],
            "type" : "VEC3"
        },
        {
            "bufferView" : 5,
            "componentType" : 5126,
            "count" : 158,
            "type" : "VEC3"
        },
        {
            "bufferView" : 6,
            "componentType" : 5126,
            "count" : 158,
            "type" : "VEC2"
        },
        {
            "bufferView" : 7,
            "componentType" : 5123,
            "count" : 429,
            "type" : "SCALAR"
        }
    ],
    "bufferViews" : [
        {
            "buffer" : 0,
            "byteLength" : 15012,
            "byteOffset" : 0
        },
        {
            "buffer" : 0,
            "byteLength" : 15012,
            "byteOffset" : 15012
        },
        {
            "buffer" : 0,
            "byteLength" : 10008,
            "byteOffset" : 30024
        },
        {
            "buffer" : 0,
            "byteLength" : 6198,
            "byteOffset" : 40032
        },
        {
            "buffer" : 0,
            "byteLength" : 1896,
            "byteOffset" : 46232
        },
        {
            "buffer" : 0,
            "byteLength" : 1896,
            "byteOffset" : 48128
        },
        {
            "buffer" : 0,
            "byteLength" : 1264,
            "byteOffset" : 50024
        },
        {
            "buffer" : 0,
            "byteLength" : 858,
            "byteOffset" : 51288
        }
    ],
    "samplers" : [
        {
            "magFilter" : 9729,
            "minFilter" : 9987
        }
    ],
    "buffers" : [
        {
            "byteLength" : 52148,
            "uri" : "BrokenPillar.bin"
        }
    ]
}
