{
    "asset" : {
        "generator" : "Khronos glTF Blender I/O v1.7.33",
        "version" : "2.0"
    },
    "extensionsUsed" : [
        "KHR_materials_transmission"
    ],
    "scene" : 0,
    "scenes" : [
        {
            "name" : "Scene",
            "nodes" : [
                0
            ]
        }
    ],
    "nodes" : [
        {
            "mesh" : 0,
            "name" : "CrystalRed",
            "scale" : [
                2.296999931335449,
                2.296999931335449,
                2.296999931335449
            ]
        }
    ],
    "materials" : [
        {
            "doubleSided" : true,
            "emissiveFactor" : [
                0.20103505439183778,
                0,
                0
            ],
            "extensions" : {
                "KHR_materials_transmission" : {
                    "transmissionFactor" : 1
                }
            },
            "name" : "Crystal",
            "pbrMetallicRoughness" : {
                "baseColorFactor" : [
                    0.8000000715255737,
                    0.00511547876521945,
                    0,
                    1
                ],
                "metallicFactor" : 0,
                "roughnessFactor" : 0.209090918302536
            }
        },
        {
            "doubleSided" : true,
            "emissiveFactor" : [
                1,
                0.0029373684370523068,
                0
            ],
            "extensions" : {
                "KHR_materials_transmission" : {
                    "transmissionFactor" : 1
                }
            },
            "name" : "CrystalOutlineRed",
            "pbrMetallicRoughness" : {
                "baseColorFactor" : [
                    1,
                    0,
                    0.012590696103870869,
                    0.8818178176879883
                ],
                "metallicFactor" : 0,
                "roughnessFactor" : 0
            }
        }
    ],
    "meshes" : [
        {
            "name" : "Plane.002",
            "primitives" : [
                {
                    "attributes" : {
                        "POSITION" : 0,
                        "NORMAL" : 1,
                        "TEXCOORD_0" : 2
                    },
                    "indices" : 3,
                    "material" : 0
                },
                {
                    "attributes" : {
                        "POSITION" : 4,
                        "NORMAL" : 5,
                        "TEXCOORD_0" : 6
                    },
                    "indices" : 7,
                    "material" : 1
                }
            ]
        }
    ],
    "accessors" : [
        {
            "bufferView" : 0,
            "componentType" : 5126,
            "count" : 104,
            "max" : [
                0.04595249891281128,
                0.019420990720391273,
                0.08043511211872101
            ],
            "min" : [
                -0.04595249891281128,
                -0.019420990720391273,
                -0.0811675563454628
            ],
            "type" : "VEC3"
        },
        {
            "bufferView" : 1,
            "componentType" : 5126,
            "count" : 104,
            "type" : "VEC3"
        },
        {
            "bufferView" : 2,
            "componentType" : 5126,
            "count" : 104,
            "type" : "VEC2"
        },
        {
            "bufferView" : 3,
            "componentType" : 5123,
            "count" : 168,
            "type" : "SCALAR"
        },
        {
            "bufferView" : 4,
            "componentType" : 5126,
            "count" : 526,
            "max" : [
                0.04879530891776085,
                0.019420990720391273,
                0.08703527599573135
            ],
            "min" : [
                -0.04879530891776085,
                -0.019420990720391273,
                -0.08703527599573135
            ],
            "type" : "VEC3"
        },
        {
            "bufferView" : 5,
            "componentType" : 5126,
            "count" : 526,
            "type" : "VEC3"
        },
        {
            "bufferView" : 6,
            "componentType" : 5126,
            "count" : 526,
            "type" : "VEC2"
        },
        {
            "bufferView" : 7,
            "componentType" : 5123,
            "count" : 792,
            "type" : "SCALAR"
        }
    ],
    "bufferViews" : [
        {
            "buffer" : 0,
            "byteLength" : 1248,
            "byteOffset" : 0
        },
        {
            "buffer" : 0,
            "byteLength" : 1248,
            "byteOffset" : 1248
        },
        {
            "buffer" : 0,
            "byteLength" : 832,
            "byteOffset" : 2496
        },
        {
            "buffer" : 0,
            "byteLength" : 336,
            "byteOffset" : 3328
        },
        {
            "buffer" : 0,
            "byteLength" : 6312,
            "byteOffset" : 3664
        },
        {
            "buffer" : 0,
            "byteLength" : 6312,
            "byteOffset" : 9976
        },
        {
            "buffer" : 0,
            "byteLength" : 4208,
            "byteOffset" : 16288
        },
        {
            "buffer" : 0,
            "byteLength" : 1584,
            "byteOffset" : 20496
        }
    ],
    "buffers" : [
        {
            "byteLength" : 22080,
            "uri" : "CrystalRed.bin"
        }
    ]
}
