{
    "asset" : {
        "generator" : "Khronos glTF Blender I/O v1.7.33",
        "version" : "2.0"
    },
    "scene" : 0,
    "scenes" : [
        {
            "name" : "Scene",
            "nodes" : [
                0,
                1
            ]
        }
    ],
    "nodes" : [
        {
            "mesh" : 0,
            "name" : "Axe"
        },
        {
            "mesh" : 1,
            "name" : "Staff",
            "scale" : [
                1.0964256525039673,
                1.0964256525039673,
                1.0964256525039673
            ],
            "translation" : [
                0,
                -0.38348594307899475,
                0
            ]
        }
    ],
    "materials" : [
        {
            "doubleSided" : true,
            "name" : "Material",
            "normalTexture" : {
                "index" : 0,
                "scale" : 1.2999999523162842
            },
            "pbrMetallicRoughness" : {
                "baseColorTexture" : {
                    "index" : 1
                },
                "roughnessFactor" : 0.7727272510528564
            }
        },
        {
            "doubleSided" : true,
            "name" : "Material.001",
            "pbrMetallicRoughness" : {
                "baseColorTexture" : {
                    "index" : 2
                },
                "metallicFactor" : 0,
                "roughnessFactor" : 0.5
            }
        }
    ],
    "meshes" : [
        {
            "name" : "Cube",
            "primitives" : [
                {
                    "attributes" : {
                        "POSITION" : 0,
                        "NORMAL" : 1,
                        "TEXCOORD_0" : 2
                    },
                    "indices" : 3,
                    "material" : 0
                }
            ]
        },
        {
            "name" : "Cylinder",
            "primitives" : [
                {
                    "attributes" : {
                        "POSITION" : 4,
                        "NORMAL" : 5,
                        "TEXCOORD_0" : 6
                    },
                    "indices" : 7,
                    "material" : 1
                }
            ]
        }
    ],
    "textures" : [
        {
            "sampler" : 0,
            "source" : 0
        },
        {
            "sampler" : 0,
            "source" : 1
        },
        {
            "sampler" : 0,
            "source" : 2
        }
    ],
    "images" : [
        {
            "mimeType" : "image/jpeg",
            "name" : "MetalCorrodedHeavy001_NRM_1K_METALNESS",
            "uri" : "MetalCorrodedHeavy001_NRM_1K_METALNESS.jpg"
        },
        {
            "mimeType" : "image/jpeg",
            "name" : "MetalCorrodedHeavy001_COL_1K_METALNESS",
            "uri" : "MetalCorrodedHeavy001_COL_1K_METALNESS.jpg"
        },
        {
            "mimeType" : "image/png",
            "name" : "SpearStandWoodBake",
            "uri" : "SpearStandWoodBake.png"
        }
    ],
    "accessors" : [
        {
            "bufferView" : 0,
            "componentType" : 5126,
            "count" : 164,
            "max" : [
                0.3364131450653076,
                0.029999999329447746,
                0.029999999329447746
            ],
            "min" : [
                -0.3364131450653076,
                -0.17532938718795776,
                -0.029999999329447746
            ],
            "type" : "VEC3"
        },
        {
            "bufferView" : 1,
            "componentType" : 5126,
            "count" : 164,
            "type" : "VEC3"
        },
        {
            "bufferView" : 2,
            "componentType" : 5126,
            "count" : 164,
            "type" : "VEC2"
        },
        {
            "bufferView" : 3,
            "componentType" : 5123,
            "count" : 630,
            "type" : "SCALAR"
        },
        {
            "bufferView" : 4,
            "componentType" : 5126,
            "count" : 698,
            "max" : [
                0.016999999061226845,
                0.3999999761581421,
                0.016999999061226845
            ],
            "min" : [
                -0.016999999061226845,
                -0.4560929834842682,
                -0.016999999061226845
            ],
            "type" : "VEC3"
        },
        {
            "bufferView" : 5,
            "componentType" : 5126,
            "count" : 698,
            "type" : "VEC3"
        },
        {
            "bufferView" : 6,
            "componentType" : 5126,
            "count" : 698,
            "type" : "VEC2"
        },
        {
            "bufferView" : 7,
            "componentType" : 5123,
            "count" : 1140,
            "type" : "SCALAR"
        }
    ],
    "bufferViews" : [
        {
            "buffer" : 0,
            "byteLength" : 1968,
            "byteOffset" : 0
        },
        {
            "buffer" : 0,
            "byteLength" : 1968,
            "byteOffset" : 1968
        },
        {
            "buffer" : 0,
            "byteLength" : 1312,
            "byteOffset" : 3936
        },
        {
            "buffer" : 0,
            "byteLength" : 1260,
            "byteOffset" : 5248
        },
        {
            "buffer" : 0,
            "byteLength" : 8376,
            "byteOffset" : 6508
        },
        {
            "buffer" : 0,
            "byteLength" : 8376,
            "byteOffset" : 14884
        },
        {
            "buffer" : 0,
            "byteLength" : 5584,
            "byteOffset" : 23260
        },
        {
            "buffer" : 0,
            "byteLength" : 2280,
            "byteOffset" : 28844
        }
    ],
    "samplers" : [
        {
            "magFilter" : 9729,
            "minFilter" : 9987
        }
    ],
    "buffers" : [
        {
            "byteLength" : 31124,
            "uri" : "Pickaxe.bin"
        }
    ]
}
