{
    "asset" : {
        "generator" : "Khronos glTF Blender I/O v1.7.33",
        "version" : "2.0"
    },
    "scene" : 0,
    "scenes" : [
        {
            "name" : "Scene",
            "nodes" : [
                0
            ]
        }
    ],
    "nodes" : [
        {
            "mesh" : 0,
            "name" : "LowPolyStoneTable",
            "scale" : [
                2.5467238426208496,
                2.5467238426208496,
                2.5467238426208496
            ]
        }
    ],
    "materials" : [
        {
            "doubleSided" : true,
            "name" : "StoneTableLowPoly",
            "normalTexture" : {
                "index" : 0,
                "scale" : 1.2999999523162842
            },
            "pbrMetallicRoughness" : {
                "baseColorTexture" : {
                    "index" : 1
                },
                "metallicFactor" : 0
            }
        }
    ],
    "meshes" : [
        {
            "name" : "Plane.008",
            "primitives" : [
                {
                    "attributes" : {
                        "POSITION" : 0,
                        "NORMAL" : 1,
                        "TEXCOORD_0" : 2
                    },
                    "indices" : 3,
                    "material" : 0
                }
            ]
        }
    ],
    "textures" : [
        {
            "sampler" : 0,
            "source" : 0
        },
        {
            "sampler" : 0,
            "source" : 1
        }
    ],
    "images" : [
        {
            "mimeType" : "image/png",
            "name" : "StoneTableFullNormalBake",
            "uri" : "StoneTableFullNormalBake.png"
        },
        {
            "mimeType" : "image/jpeg",
            "name" : "RockSandstone001_COL_3K",
            "uri" : "RockSandstone001_COL_3K.jpg"
        }
    ],
    "accessors" : [
        {
            "bufferView" : 0,
            "componentType" : 5126,
            "count" : 825,
            "max" : [
                1.002153992652893,
                0.6265280246734619,
                1.0006974935531616
            ],
            "min" : [
                -1.0011053085327148,
                -0.007721438072621822,
                -1.0091363191604614
            ],
            "type" : "VEC3"
        },
        {
            "bufferView" : 1,
            "componentType" : 5126,
            "count" : 825,
            "type" : "VEC3"
        },
        {
            "bufferView" : 2,
            "componentType" : 5126,
            "count" : 825,
            "type" : "VEC2"
        },
        {
            "bufferView" : 3,
            "componentType" : 5123,
            "count" : 2922,
            "type" : "SCALAR"
        }
    ],
    "bufferViews" : [
        {
            "buffer" : 0,
            "byteLength" : 9900,
            "byteOffset" : 0
        },
        {
            "buffer" : 0,
            "byteLength" : 9900,
            "byteOffset" : 9900
        },
        {
            "buffer" : 0,
            "byteLength" : 6600,
            "byteOffset" : 19800
        },
        {
            "buffer" : 0,
            "byteLength" : 5844,
            "byteOffset" : 26400
        }
    ],
    "samplers" : [
        {
            "magFilter" : 9729,
            "minFilter" : 9987
        }
    ],
    "buffers" : [
        {
            "byteLength" : 32244,
            "uri" : "PyramidStand.bin"
        }
    ]
}
