{
    "asset" : {
        "generator" : "Khronos glTF Blender I/O v1.7.33",
        "version" : "2.0"
    },
    "scene" : 0,
    "scenes" : [
        {
            "name" : "Scene",
            "nodes" : [
                0
            ]
        }
    ],
    "nodes" : [
        {
            "mesh" : 0,
            "name" : "Stein 160x160x145LowPoly",
            "scale" : [
                1.0000032186508179,
                1,
                1
            ]
        }
    ],
    "materials" : [
        {
            "doubleSided" : true,
            "name" : "RockBaked5",
            "normalTexture" : {
                "index" : 0
            },
            "pbrMetallicRoughness" : {
                "baseColorTexture" : {
                    "index" : 1
                },
                "metallicFactor" : 0,
                "roughnessFactor" : 0.9318181872367859
            }
        }
    ],
    "meshes" : [
        {
            "name" : "Cube.008",
            "primitives" : [
                {
                    "attributes" : {
                        "POSITION" : 0,
                        "NORMAL" : 1,
                        "TEXCOORD_0" : 2
                    },
                    "indices" : 3,
                    "material" : 0
                }
            ]
        }
    ],
    "textures" : [
        {
            "sampler" : 0,
            "source" : 0
        },
        {
            "sampler" : 0,
            "source" : 1
        }
    ],
    "images" : [
        {
            "mimeType" : "image/png",
            "name" : "NielsRockNormalBake_5",
            "uri" : "NielsRockNormalBake_5.png"
        },
        {
            "mimeType" : "image/png",
            "name" : "NielsRockTextureBake_5",
            "uri" : "NielsRockTextureBake_5.png"
        }
    ],
    "accessors" : [
        {
            "bufferView" : 0,
            "componentType" : 5126,
            "count" : 449,
            "max" : [
                0.7941477298736572,
                0.7814428806304932,
                0.8777111768722534
            ],
            "min" : [
                -0.8051804304122925,
                -0.6694623827934265,
                -0.7933028936386108
            ],
            "type" : "VEC3"
        },
        {
            "bufferView" : 1,
            "componentType" : 5126,
            "count" : 449,
            "type" : "VEC3"
        },
        {
            "bufferView" : 2,
            "componentType" : 5126,
            "count" : 449,
            "type" : "VEC2"
        },
        {
            "bufferView" : 3,
            "componentType" : 5123,
            "count" : 2004,
            "type" : "SCALAR"
        }
    ],
    "bufferViews" : [
        {
            "buffer" : 0,
            "byteLength" : 5388,
            "byteOffset" : 0
        },
        {
            "buffer" : 0,
            "byteLength" : 5388,
            "byteOffset" : 5388
        },
        {
            "buffer" : 0,
            "byteLength" : 3592,
            "byteOffset" : 10776
        },
        {
            "buffer" : 0,
            "byteLength" : 4008,
            "byteOffset" : 14368
        }
    ],
    "samplers" : [
        {
            "magFilter" : 9729,
            "minFilter" : 9987
        }
    ],
    "buffers" : [
        {
            "byteLength" : 18376,
            "uri" : "Rock160x160x145.bin"
        }
    ]
}
