{
    "asset" : {
        "generator" : "Khronos glTF Blender I/O v1.7.33",
        "version" : "2.0"
    },
    "scene" : 0,
    "scenes" : [
        {
            "name" : "Scene",
            "nodes" : [
                0
            ]
        }
    ],
    "nodes" : [
        {
            "mesh" : 0,
            "name" : "Stein 210x200x130LowPoly",
            "scale" : [
                1.295064091682434,
                1.139912486076355,
                1.2176768779754639
            ]
        }
    ],
    "materials" : [
        {
            "doubleSided" : true,
            "name" : "RockBaked6",
            "normalTexture" : {
                "index" : 0
            },
            "pbrMetallicRoughness" : {
                "baseColorTexture" : {
                    "index" : 1
                },
                "metallicFactor" : 0,
                "roughnessFactor" : 0.9318181872367859
            }
        }
    ],
    "meshes" : [
        {
            "name" : "Cube.007",
            "primitives" : [
                {
                    "attributes" : {
                        "POSITION" : 0,
                        "NORMAL" : 1,
                        "TEXCOORD_0" : 2
                    },
                    "indices" : 3,
                    "material" : 0
                }
            ]
        }
    ],
    "textures" : [
        {
            "sampler" : 0,
            "source" : 0
        },
        {
            "sampler" : 0,
            "source" : 1
        }
    ],
    "images" : [
        {
            "mimeType" : "image/png",
            "name" : "NielsRockNormalBake_6",
            "uri" : "NielsRockNormalBake_6.png"
        },
        {
            "mimeType" : "image/png",
            "name" : "NielsRockTextureBake_6",
            "uri" : "NielsRockTextureBake_6.png"
        }
    ],
    "accessors" : [
        {
            "bufferView" : 0,
            "componentType" : 5126,
            "count" : 761,
            "max" : [
                0.8015071153640747,
                0.5747788548469543,
                0.8689074516296387
            ],
            "min" : [
                -0.8203414678573608,
                -0.5655108094215393,
                -0.794195294380188
            ],
            "type" : "VEC3"
        },
        {
            "bufferView" : 1,
            "componentType" : 5126,
            "count" : 761,
            "type" : "VEC3"
        },
        {
            "bufferView" : 2,
            "componentType" : 5126,
            "count" : 761,
            "type" : "VEC2"
        },
        {
            "bufferView" : 3,
            "componentType" : 5123,
            "count" : 3756,
            "type" : "SCALAR"
        }
    ],
    "bufferViews" : [
        {
            "buffer" : 0,
            "byteLength" : 9132,
            "byteOffset" : 0
        },
        {
            "buffer" : 0,
            "byteLength" : 9132,
            "byteOffset" : 9132
        },
        {
            "buffer" : 0,
            "byteLength" : 6088,
            "byteOffset" : 18264
        },
        {
            "buffer" : 0,
            "byteLength" : 7512,
            "byteOffset" : 24352
        }
    ],
    "samplers" : [
        {
            "magFilter" : 9729,
            "minFilter" : 9987
        }
    ],
    "buffers" : [
        {
            "byteLength" : 31864,
            "uri" : "Rock210x200x130.bin"
        }
    ]
}
