{
    "asset" : {
        "generator" : "Khronos glTF Blender I/O v1.7.33",
        "version" : "2.0"
    },
    "scene" : 0,
    "scenes" : [
        {
            "name" : "Scene",
            "nodes" : [
                0
            ]
        }
    ],
    "nodes" : [
        {
            "mesh" : 0,
            "name" : "Stein 60x50x40LowPoly",
            "scale" : [
                0.3885192573070526,
                0.34197375178337097,
                0.365303099155426
            ]
        }
    ],
    "materials" : [
        {
            "doubleSided" : true,
            "name" : "RockBaked1",
            "normalTexture" : {
                "index" : 0
            },
            "pbrMetallicRoughness" : {
                "baseColorTexture" : {
                    "index" : 1
                },
                "metallicFactor" : 0,
                "roughnessFactor" : 0.9318181872367859
            }
        }
    ],
    "meshes" : [
        {
            "name" : "Cube.012",
            "primitives" : [
                {
                    "attributes" : {
                        "POSITION" : 0,
                        "NORMAL" : 1,
                        "TEXCOORD_0" : 2
                    },
                    "indices" : 3,
                    "material" : 0
                }
            ]
        }
    ],
    "textures" : [
        {
            "sampler" : 0,
            "source" : 0
        },
        {
            "sampler" : 0,
            "source" : 1
        }
    ],
    "images" : [
        {
            "mimeType" : "image/png",
            "name" : "NielsRockNormalBake_1",
            "uri" : "NielsRockNormalBake_1.png"
        },
        {
            "mimeType" : "image/png",
            "name" : "NielsRockTextureBake_1",
            "uri" : "NielsRockTextureBake_1.png"
        }
    ],
    "accessors" : [
        {
            "bufferView" : 0,
            "componentType" : 5126,
            "count" : 380,
            "max" : [
                0.8167693614959717,
                0.5726150870323181,
                0.6948947310447693
            ],
            "min" : [
                -0.7888714075088501,
                -0.5330904126167297,
                -0.7347111701965332
            ],
            "type" : "VEC3"
        },
        {
            "bufferView" : 1,
            "componentType" : 5126,
            "count" : 380,
            "type" : "VEC3"
        },
        {
            "bufferView" : 2,
            "componentType" : 5126,
            "count" : 380,
            "type" : "VEC2"
        },
        {
            "bufferView" : 3,
            "componentType" : 5123,
            "count" : 1608,
            "type" : "SCALAR"
        }
    ],
    "bufferViews" : [
        {
            "buffer" : 0,
            "byteLength" : 4560,
            "byteOffset" : 0
        },
        {
            "buffer" : 0,
            "byteLength" : 4560,
            "byteOffset" : 4560
        },
        {
            "buffer" : 0,
            "byteLength" : 3040,
            "byteOffset" : 9120
        },
        {
            "buffer" : 0,
            "byteLength" : 3216,
            "byteOffset" : 12160
        }
    ],
    "samplers" : [
        {
            "magFilter" : 9729,
            "minFilter" : 9987
        }
    ],
    "buffers" : [
        {
            "byteLength" : 15376,
            "uri" : "Rock60x50x40.bin"
        }
    ]
}
