{
    "asset" : {
        "generator" : "Khronos glTF Blender I/O v1.7.33",
        "version" : "2.0"
    },
    "scene" : 0,
    "scenes" : [
        {
            "name" : "Scene",
            "nodes" : [
                0
            ]
        }
    ],
    "nodes" : [
        {
            "mesh" : 0,
            "name" : "Schild",
            "rotation" : [
                -0.5,
                0.4999999701976776,
                0.4999999701976776,
                -0.5
            ]
        }
    ],
    "materials" : [
        {
            "doubleSided" : true,
            "name" : "Material.004",
            "pbrMetallicRoughness" : {
                "baseColorTexture" : {
                    "index" : 0
                },
                "roughnessFactor" : 0.15454545617103577
            }
        },
        {
            "doubleSided" : true,
            "name" : "silver",
            "pbrMetallicRoughness" : {
                "baseColorFactor" : [
                    0.10401604324579239,
                    0.10401604324579239,
                    0.10401604324579239,
                    1
                ],
                "roughnessFactor" : 0.15909090638160706
            }
        }
    ],
    "meshes" : [
        {
            "name" : "Circle.001",
            "primitives" : [
                {
                    "attributes" : {
                        "POSITION" : 0,
                        "NORMAL" : 1,
                        "TEXCOORD_0" : 2
                    },
                    "indices" : 3,
                    "material" : 0
                },
                {
                    "attributes" : {
                        "POSITION" : 4,
                        "NORMAL" : 5,
                        "TEXCOORD_0" : 6
                    },
                    "indices" : 7,
                    "material" : 1
                }
            ]
        }
    ],
    "textures" : [
        {
            "sampler" : 0,
            "source" : 0
        }
    ],
    "images" : [
        {
            "mimeType" : "image/png",
            "name" : "ShieldTextureBake",
            "uri" : "ShieldTextureBake.png"
        }
    ],
    "accessors" : [
        {
            "bufferView" : 0,
            "componentType" : 5126,
            "count" : 353,
            "max" : [
                0.27468425035476685,
                0.02230093628168106,
                0.27468401193618774
            ],
            "min" : [
                -0.2746838331222534,
                -0.027491873130202293,
                -0.2746840715408325
            ],
            "type" : "VEC3"
        },
        {
            "bufferView" : 1,
            "componentType" : 5126,
            "count" : 353,
            "type" : "VEC3"
        },
        {
            "bufferView" : 2,
            "componentType" : 5126,
            "count" : 353,
            "type" : "VEC2"
        },
        {
            "bufferView" : 3,
            "componentType" : 5123,
            "count" : 1920,
            "type" : "SCALAR"
        },
        {
            "bufferView" : 4,
            "componentType" : 5126,
            "count" : 320,
            "max" : [
                0.30000022053718567,
                -0.014190372079610825,
                0.29999998211860657
            ],
            "min" : [
                -0.29999980330467224,
                -0.02032109722495079,
                -0.30000004172325134
            ],
            "type" : "VEC3"
        },
        {
            "bufferView" : 5,
            "componentType" : 5126,
            "count" : 320,
            "type" : "VEC3"
        },
        {
            "bufferView" : 6,
            "componentType" : 5126,
            "count" : 320,
            "type" : "VEC2"
        },
        {
            "bufferView" : 7,
            "componentType" : 5123,
            "count" : 1632,
            "type" : "SCALAR"
        }
    ],
    "bufferViews" : [
        {
            "buffer" : 0,
            "byteLength" : 4236,
            "byteOffset" : 0
        },
        {
            "buffer" : 0,
            "byteLength" : 4236,
            "byteOffset" : 4236
        },
        {
            "buffer" : 0,
            "byteLength" : 2824,
            "byteOffset" : 8472
        },
        {
            "buffer" : 0,
            "byteLength" : 3840,
            "byteOffset" : 11296
        },
        {
            "buffer" : 0,
            "byteLength" : 3840,
            "byteOffset" : 15136
        },
        {
            "buffer" : 0,
            "byteLength" : 3840,
            "byteOffset" : 18976
        },
        {
            "buffer" : 0,
            "byteLength" : 2560,
            "byteOffset" : 22816
        },
        {
            "buffer" : 0,
            "byteLength" : 3264,
            "byteOffset" : 25376
        }
    ],
    "samplers" : [
        {
            "magFilter" : 9729,
            "minFilter" : 9987
        }
    ],
    "buffers" : [
        {
            "byteLength" : 28640,
            "uri" : "Shield.bin"
        }
    ]
}
