{
    "asset" : {
        "generator" : "Khronos glTF Blender I/O v1.7.33",
        "version" : "2.0"
    },
    "extensionsUsed" : [
        "KHR_materials_transmission"
    ],
    "scene" : 0,
    "scenes" : [
        {
            "name" : "Scene",
            "nodes" : [
                0,
                1,
                2,
                3
            ]
        }
    ],
    "nodes" : [
        {
            "mesh" : 0,
            "name" : "Blade",
            "rotation" : [
                0,
                0,
                -0.11187198013067245,
                0.9937226176261902
            ],
            "scale" : [
                1,
                1,
                1.1008808612823486
            ],
            "translation" : [
                0,
                0.006372525356709957,
                0
            ]
        },
        {
            "mesh" : 1,
            "name" : "Thing",
            "scale" : [
                0.5087332725524902,
                0.37940946221351624,
                0.5087332725524902
            ]
        },
        {
            "mesh" : 2,
            "name" : "Cylinder",
            "translation" : [
                0,
                -0.11219822615385056,
                0
            ]
        },
        {
            "mesh" : 3,
            "name" : "Icosphere",
            "scale" : [
                1.0927295684814453,
                1.0927295684814453,
                1.0927295684814453
            ],
            "translation" : [
                0,
                -0.19230680167675018,
                0
            ]
        }
    ],
    "materials" : [
        {
            "doubleSided" : true,
            "name" : "IronBlade",
            "pbrMetallicRoughness" : {
                "baseColorFactor" : [
                    0.2202576845884323,
                    0.2202576845884323,
                    0.2202576845884323,
                    1
                ],
                "roughnessFactor" : 0.09842520952224731
            }
        },
        {
            "doubleSided" : true,
            "name" : "Wood",
            "normalTexture" : {
                "index" : 0,
                "scale" : 0.2800000309944153
            },
            "pbrMetallicRoughness" : {
                "baseColorTexture" : {
                    "index" : 1
                },
                "metallicFactor" : 0,
                "roughnessFactor" : 0.9545454382896423
            }
        },
        {
            "doubleSided" : true,
            "extensions" : {
                "KHR_materials_transmission" : {
                    "transmissionFactor" : 1
                }
            },
            "name" : "Juwel",
            "pbrMetallicRoughness" : {
                "baseColorFactor" : [
                    0.8000000715255737,
                    0,
                    0.005444134119898081,
                    1
                ],
                "metallicFactor" : 0,
                "roughnessFactor" : 0.08267718553543091
            }
        }
    ],
    "meshes" : [
        {
            "name" : "Cube",
            "primitives" : [
                {
                    "attributes" : {
                        "POSITION" : 0,
                        "NORMAL" : 1,
                        "TEXCOORD_0" : 2
                    },
                    "indices" : 3,
                    "material" : 0
                }
            ]
        },
        {
            "name" : "Cube.002",
            "primitives" : [
                {
                    "attributes" : {
                        "POSITION" : 4,
                        "NORMAL" : 5,
                        "TEXCOORD_0" : 6
                    },
                    "indices" : 7,
                    "material" : 1
                }
            ]
        },
        {
            "name" : "Cylinder",
            "primitives" : [
                {
                    "attributes" : {
                        "POSITION" : 8,
                        "NORMAL" : 9,
                        "TEXCOORD_0" : 10
                    },
                    "indices" : 11,
                    "material" : 1
                }
            ]
        },
        {
            "name" : "Icosphere.001",
            "primitives" : [
                {
                    "attributes" : {
                        "POSITION" : 12,
                        "NORMAL" : 13,
                        "TEXCOORD_0" : 14
                    },
                    "indices" : 15,
                    "material" : 2
                }
            ]
        }
    ],
    "textures" : [
        {
            "sampler" : 0,
            "source" : 0
        },
        {
            "sampler" : 0,
            "source" : 1
        }
    ],
    "images" : [
        {
            "mimeType" : "image/jpeg",
            "name" : "WoodLogSidingRough001_NRM_2K",
            "uri" : "WoodLogSidingRough001_NRM_2K.jpg"
        },
        {
            "mimeType" : "image/png",
            "name" : "SwordHandleTexture",
            "uri" : "SwordHandleTexture.png"
        }
    ],
    "accessors" : [
        {
            "bufferView" : 0,
            "componentType" : 5126,
            "count" : 88,
            "max" : [
                0.03084394708275795,
                0.822445809841156,
                0.007226963993161917
            ],
            "min" : [
                -0.10937324911355972,
                -0.019653767347335815,
                -0.007265306543558836
            ],
            "type" : "VEC3"
        },
        {
            "bufferView" : 1,
            "componentType" : 5126,
            "count" : 88,
            "type" : "VEC3"
        },
        {
            "bufferView" : 2,
            "componentType" : 5126,
            "count" : 88,
            "type" : "VEC2"
        },
        {
            "bufferView" : 3,
            "componentType" : 5123,
            "count" : 417,
            "type" : "SCALAR"
        },
        {
            "bufferView" : 4,
            "componentType" : 5126,
            "count" : 140,
            "max" : [
                0.16617731750011444,
                0.05239410698413849,
                0.038985319435596466
            ],
            "min" : [
                -0.16617731750011444,
                -0.05239410698413849,
                -0.03898531571030617
            ],
            "type" : "VEC3"
        },
        {
            "bufferView" : 5,
            "componentType" : 5126,
            "count" : 140,
            "type" : "VEC3"
        },
        {
            "bufferView" : 6,
            "componentType" : 5126,
            "count" : 140,
            "type" : "VEC2"
        },
        {
            "bufferView" : 7,
            "componentType" : 5123,
            "count" : 576,
            "type" : "SCALAR"
        },
        {
            "bufferView" : 8,
            "componentType" : 5126,
            "count" : 151,
            "max" : [
                0.020593933761119843,
                0.09999999403953552,
                0.020593933761119843
            ],
            "min" : [
                -0.020593933761119843,
                -0.07241586595773697,
                -0.020593933761119843
            ],
            "type" : "VEC3"
        },
        {
            "bufferView" : 9,
            "componentType" : 5126,
            "count" : 151,
            "type" : "VEC3"
        },
        {
            "bufferView" : 10,
            "componentType" : 5126,
            "count" : 151,
            "type" : "VEC2"
        },
        {
            "bufferView" : 11,
            "componentType" : 5123,
            "count" : 660,
            "type" : "SCALAR"
        },
        {
            "bufferView" : 12,
            "componentType" : 5126,
            "count" : 240,
            "max" : [
                0.018070122227072716,
                0.01900002360343933,
                0.01900002360343933
            ],
            "min" : [
                -0.018070122227072716,
                -0.01900002360343933,
                -0.01900002360343933
            ],
            "type" : "VEC3"
        },
        {
            "bufferView" : 13,
            "componentType" : 5126,
            "count" : 240,
            "type" : "VEC3"
        },
        {
            "bufferView" : 14,
            "componentType" : 5126,
            "count" : 240,
            "type" : "VEC2"
        },
        {
            "bufferView" : 15,
            "componentType" : 5123,
            "count" : 240,
            "type" : "SCALAR"
        }
    ],
    "bufferViews" : [
        {
            "buffer" : 0,
            "byteLength" : 1056,
            "byteOffset" : 0
        },
        {
            "buffer" : 0,
            "byteLength" : 1056,
            "byteOffset" : 1056
        },
        {
            "buffer" : 0,
            "byteLength" : 704,
            "byteOffset" : 2112
        },
        {
            "buffer" : 0,
            "byteLength" : 834,
            "byteOffset" : 2816
        },
        {
            "buffer" : 0,
            "byteLength" : 1680,
            "byteOffset" : 3652
        },
        {
            "buffer" : 0,
            "byteLength" : 1680,
            "byteOffset" : 5332
        },
        {
            "buffer" : 0,
            "byteLength" : 1120,
            "byteOffset" : 7012
        },
        {
            "buffer" : 0,
            "byteLength" : 1152,
            "byteOffset" : 8132
        },
        {
            "buffer" : 0,
            "byteLength" : 1812,
            "byteOffset" : 9284
        },
        {
            "buffer" : 0,
            "byteLength" : 1812,
            "byteOffset" : 11096
        },
        {
            "buffer" : 0,
            "byteLength" : 1208,
            "byteOffset" : 12908
        },
        {
            "buffer" : 0,
            "byteLength" : 1320,
            "byteOffset" : 14116
        },
        {
            "buffer" : 0,
            "byteLength" : 2880,
            "byteOffset" : 15436
        },
        {
            "buffer" : 0,
            "byteLength" : 2880,
            "byteOffset" : 18316
        },
        {
            "buffer" : 0,
            "byteLength" : 1920,
            "byteOffset" : 21196
        },
        {
            "buffer" : 0,
            "byteLength" : 480,
            "byteOffset" : 23116
        }
    ],
    "samplers" : [
        {
            "magFilter" : 9729,
            "minFilter" : 9987
        }
    ],
    "buffers" : [
        {
            "byteLength" : 23596,
            "uri" : "Sword.bin"
        }
    ]
}
