{
    "asset" : {
        "generator" : "Khronos glTF Blender I/O v1.7.33",
        "version" : "2.0"
    },
    "scene" : 0,
    "scenes" : [
        {
            "name" : "Scene",
            "nodes" : [
                0
            ]
        }
    ],
    "nodes" : [
        {
            "mesh" : 0,
            "name" : "Vase v1",
            "rotation" : [
                0,
                0.7071068286895752,
                0,
                -0.7071068286895752
            ],
            "translation" : [
                0,
                0.9999999403953552,
                0
            ]
        }
    ],
    "materials" : [
        {
            "doubleSided" : true,
            "name" : "Vase 1",
            "normalTexture" : {
                "index" : 0,
                "scale" : 2.6999998092651367
            },
            "pbrMetallicRoughness" : {
                "baseColorTexture" : {
                    "index" : 1
                },
                "metallicFactor" : 0,
                "metallicRoughnessTexture" : {
                    "index" : 2
                }
            }
        }
    ],
    "meshes" : [
        {
            "name" : "Cylinder",
            "primitives" : [
                {
                    "attributes" : {
                        "POSITION" : 0,
                        "NORMAL" : 1,
                        "TEXCOORD_0" : 2
                    },
                    "indices" : 3,
                    "material" : 0
                }
            ]
        }
    ],
    "textures" : [
        {
            "sampler" : 0,
            "source" : 0
        },
        {
            "sampler" : 0,
            "source" : 1
        },
        {
            "sampler" : 0,
            "source" : 2
        }
    ],
    "images" : [
        {
            "mimeType" : "image/png",
            "name" : "Vase1NormalBake",
            "uri" : "Vase1NormalBake.png"
        },
        {
            "mimeType" : "image/png",
            "name" : "Vase1TextureBake",
            "uri" : "Vase1TextureBake.png"
        },
        {
            "mimeType" : "image/png",
            "name" : "Vase1RoughBake",
            "uri" : "Vase1RoughBake.png"
        }
    ],
    "accessors" : [
        {
            "bufferView" : 0,
            "componentType" : 5126,
            "count" : 1780,
            "max" : [
                0.3814055621623993,
                0.17554287612438202,
                0.3814055621623993
            ],
            "min" : [
                -0.3814055621623993,
                -1,
                -0.3814055621623993
            ],
            "type" : "VEC3"
        },
        {
            "bufferView" : 1,
            "componentType" : 5126,
            "count" : 1780,
            "type" : "VEC3"
        },
        {
            "bufferView" : 2,
            "componentType" : 5126,
            "count" : 1780,
            "type" : "VEC2"
        },
        {
            "bufferView" : 3,
            "componentType" : 5123,
            "count" : 9972,
            "type" : "SCALAR"
        }
    ],
    "bufferViews" : [
        {
            "buffer" : 0,
            "byteLength" : 21360,
            "byteOffset" : 0
        },
        {
            "buffer" : 0,
            "byteLength" : 21360,
            "byteOffset" : 21360
        },
        {
            "buffer" : 0,
            "byteLength" : 14240,
            "byteOffset" : 42720
        },
        {
            "buffer" : 0,
            "byteLength" : 19944,
            "byteOffset" : 56960
        }
    ],
    "samplers" : [
        {
            "magFilter" : 9729,
            "minFilter" : 9987
        }
    ],
    "buffers" : [
        {
            "byteLength" : 76904,
            "uri" : "Vase1.bin"
        }
    ]
}
