{
    "asset" : {
        "generator" : "Khronos glTF Blender I/O v1.7.33",
        "version" : "2.0"
    },
    "scene" : 0,
    "scenes" : [
        {
            "name" : "Scene",
            "nodes" : [
                0
            ]
        }
    ],
    "nodes" : [
        {
            "mesh" : 0,
            "name" : "Vase v3"
        }
    ],
    "materials" : [
        {
            "doubleSided" : true,
            "name" : "Vase 3",
            "normalTexture" : {
                "index" : 0,
                "scale" : 1.5
            },
            "pbrMetallicRoughness" : {
                "baseColorTexture" : {
                    "index" : 1
                },
                "metallicFactor" : 0,
                "metallicRoughnessTexture" : {
                    "index" : 2
                }
            }
        }
    ],
    "meshes" : [
        {
            "name" : "Circle",
            "primitives" : [
                {
                    "attributes" : {
                        "POSITION" : 0,
                        "NORMAL" : 1,
                        "TEXCOORD_0" : 2
                    },
                    "indices" : 3,
                    "material" : 0
                }
            ]
        }
    ],
    "textures" : [
        {
            "sampler" : 0,
            "source" : 0
        },
        {
            "sampler" : 0,
            "source" : 1
        },
        {
            "sampler" : 0,
            "source" : 2
        }
    ],
    "images" : [
        {
            "mimeType" : "image/png",
            "name" : "Vase3NormalBake",
            "uri" : "Vase3NormalBake.png"
        },
        {
            "mimeType" : "image/png",
            "name" : "Vase3TextureBake",
            "uri" : "Vase3TextureBake.png"
        },
        {
            "mimeType" : "image/png",
            "name" : "Vase3RoughBake",
            "uri" : "Vase3RoughBake.png"
        }
    ],
    "accessors" : [
        {
            "bufferView" : 0,
            "componentType" : 5126,
            "count" : 4936,
            "max" : [
                0.36787500977516174,
                0.7077504992485046,
                0.36787500977516174
            ],
            "min" : [
                -0.36787500977516174,
                0.00019766713376156986,
                -0.36787503957748413
            ],
            "type" : "VEC3"
        },
        {
            "bufferView" : 1,
            "componentType" : 5126,
            "count" : 4936,
            "type" : "VEC3"
        },
        {
            "bufferView" : 2,
            "componentType" : 5126,
            "count" : 4936,
            "type" : "VEC2"
        },
        {
            "bufferView" : 3,
            "componentType" : 5123,
            "count" : 23808,
            "type" : "SCALAR"
        }
    ],
    "bufferViews" : [
        {
            "buffer" : 0,
            "byteLength" : 59232,
            "byteOffset" : 0
        },
        {
            "buffer" : 0,
            "byteLength" : 59232,
            "byteOffset" : 59232
        },
        {
            "buffer" : 0,
            "byteLength" : 39488,
            "byteOffset" : 118464
        },
        {
            "buffer" : 0,
            "byteLength" : 47616,
            "byteOffset" : 157952
        }
    ],
    "samplers" : [
        {
            "magFilter" : 9729,
            "minFilter" : 9987
        }
    ],
    "buffers" : [
        {
            "byteLength" : 205568,
            "uri" : "Vase3.bin"
        }
    ]
}
