{
    "asset" : {
        "generator" : "Khronos glTF Blender I/O v1.7.33",
        "version" : "2.0"
    },
    "scene" : 0,
    "scenes" : [
        {
            "name" : "Scene",
            "nodes" : [
                0,
                1,
                2,
                3,
                4
            ]
        }
    ],
    "nodes" : [
        {
            "mesh" : 0,
            "name" : "TunnelBridge2",
            "rotation" : [
                0,
                0.9480497241020203,
                0,
                0.31812214851379395
            ],
            "translation" : [
                -52.55375289916992,
                -3.549623489379883,
                -3.3836135864257812
            ]
        },
        {
            "mesh" : 1,
            "name" : "TunnelBridge2Collision",
            "rotation" : [
                0,
                0.9480497241020203,
                0,
                0.31812214851379395
            ],
            "translation" : [
                -52.55375289916992,
                -3.549623489379883,
                -3.3836135864257812
            ]
        },
        {
            "mesh" : 2,
            "name" : "TunnelEnd",
            "rotation" : [
                0,
                0.9591087102890015,
                0,
                0.283037930727005
            ],
            "translation" : [
                24.596803665161133,
                -37.959041595458984,
                41.99427032470703
            ]
        },
        {
            "mesh" : 3,
            "name" : "TunnelEndCollision",
            "rotation" : [
                0,
                0.9591087102890015,
                0,
                0.283037930727005
            ],
            "translation" : [
                24.596803665161133,
                -37.959041595458984,
                41.99427032470703
            ]
        },
        {
            "mesh" : 4,
            "name" : "EndeVorsprung",
            "translation" : [
                16.962446212768555,
                -56.123233795166016,
                12.740266799926758
            ]
        }
    ],
    "materials" : [
        {
            "doubleSided" : true,
            "name" : "Collision",
            "pbrMetallicRoughness" : {
                "baseColorFactor" : [
                    0.8000000715255737,
                    0,
                    0.7826359868049622,
                    1
                ],
                "metallicFactor" : 0,
                "roughnessFactor" : 0.5
            }
        },
        {
            "doubleSided" : true,
            "name" : "Material.001",
            "normalTexture" : {
                "index" : 0,
                "scale" : 0.9199999570846558
            },
            "pbrMetallicRoughness" : {
                "baseColorTexture" : {
                    "index" : 1
                },
                "metallicFactor" : 0
            }
        }
    ],
    "meshes" : [
        {
            "name" : "Cube.012",
            "primitives" : [
                {
                    "attributes" : {
                        "POSITION" : 0,
                        "NORMAL" : 1,
                        "TEXCOORD_0" : 2
                    },
                    "indices" : 3
                }
            ]
        },
        {
            "name" : "Cube.023",
            "primitives" : [
                {
                    "attributes" : {
                        "POSITION" : 4,
                        "NORMAL" : 5,
                        "TEXCOORD_0" : 6
                    },
                    "indices" : 7,
                    "material" : 0
                }
            ]
        },
        {
            "name" : "Cube.027",
            "primitives" : [
                {
                    "attributes" : {
                        "POSITION" : 8,
                        "NORMAL" : 9,
                        "TEXCOORD_0" : 10
                    },
                    "indices" : 11
                }
            ]
        },
        {
            "name" : "Cube.029",
            "primitives" : [
                {
                    "attributes" : {
                        "POSITION" : 12,
                        "NORMAL" : 13,
                        "TEXCOORD_0" : 14
                    },
                    "indices" : 15,
                    "material" : 0
                }
            ]
        },
        {
            "name" : "Cube.030",
            "primitives" : [
                {
                    "attributes" : {
                        "POSITION" : 16,
                        "NORMAL" : 17,
                        "TEXCOORD_0" : 18
                    },
                    "indices" : 19,
                    "material" : 1
                }
            ]
        }
    ],
    "textures" : [
        {
            "sampler" : 0,
            "source" : 0
        },
        {
            "sampler" : 0,
            "source" : 1
        }
    ],
    "images" : [
        {
            "mimeType" : "image/jpeg",
            "name" : "CliffJagged004_NRM_3K",
            "uri" : "CliffJagged004_NRM_3K.jpg"
        },
        {
            "mimeType" : "image/png",
            "name" : "CliffJaggedDarker3K",
            "uri" : "CliffJaggedDarker3K.png"
        }
    ],
    "accessors" : [
        {
            "bufferView" : 0,
            "componentType" : 5126,
            "count" : 37895,
            "max" : [
                15.242530822753906,
                2.397381544113159,
                37.285404205322266
            ],
            "min" : [
                -15.424777030944824,
                -18.14044952392578,
                -3.199721097946167
            ],
            "type" : "VEC3"
        },
        {
            "bufferView" : 1,
            "componentType" : 5126,
            "count" : 37895,
            "type" : "VEC3"
        },
        {
            "bufferView" : 2,
            "componentType" : 5126,
            "count" : 37895,
            "type" : "VEC2"
        },
        {
            "bufferView" : 3,
            "componentType" : 5123,
            "count" : 221184,
            "type" : "SCALAR"
        },
        {
            "bufferView" : 4,
            "componentType" : 5126,
            "count" : 171,
            "max" : [
                15.656766891479492,
                2.518548011779785,
                37.73334884643555
            ],
            "min" : [
                -15.45457935333252,
                -18.169754028320312,
                -3.3167223930358887
            ],
            "type" : "VEC3"
        },
        {
            "bufferView" : 5,
            "componentType" : 5126,
            "count" : 171,
            "type" : "VEC3"
        },
        {
            "bufferView" : 6,
            "componentType" : 5126,
            "count" : 171,
            "type" : "VEC2"
        },
        {
            "bufferView" : 7,
            "componentType" : 5123,
            "count" : 864,
            "type" : "SCALAR"
        },
        {
            "bufferView" : 8,
            "componentType" : 5126,
            "count" : 54649,
            "max" : [
                19.391223907470703,
                10.929018020629883,
                26.956453323364258
            ],
            "min" : [
                -13.562836647033691,
                -17.318883895874023,
                -31.86464500427246
            ],
            "type" : "VEC3"
        },
        {
            "bufferView" : 9,
            "componentType" : 5126,
            "count" : 54649,
            "type" : "VEC3"
        },
        {
            "bufferView" : 10,
            "componentType" : 5126,
            "count" : 54649,
            "type" : "VEC2"
        },
        {
            "bufferView" : 11,
            "componentType" : 5123,
            "count" : 319488,
            "type" : "SCALAR"
        },
        {
            "bufferView" : 12,
            "componentType" : 5126,
            "count" : 243,
            "max" : [
                19.338863372802734,
                10.813560485839844,
                27.25696563720703
            ],
            "min" : [
                -13.807588577270508,
                -17.385498046875,
                -31.735069274902344
            ],
            "type" : "VEC3"
        },
        {
            "bufferView" : 13,
            "componentType" : 5126,
            "count" : 243,
            "type" : "VEC3"
        },
        {
            "bufferView" : 14,
            "componentType" : 5126,
            "count" : 243,
            "type" : "VEC2"
        },
        {
            "bufferView" : 15,
            "componentType" : 5123,
            "count" : 1248,
            "type" : "SCALAR"
        },
        {
            "bufferView" : 16,
            "componentType" : 5126,
            "count" : 241,
            "max" : [
                11.574414253234863,
                1,
                8.785669326782227
            ],
            "min" : [
                -6.0812225341796875,
                -4.8111114501953125,
                -5.014899730682373
            ],
            "type" : "VEC3"
        },
        {
            "bufferView" : 17,
            "componentType" : 5126,
            "count" : 241,
            "type" : "VEC3"
        },
        {
            "bufferView" : 18,
            "componentType" : 5126,
            "count" : 241,
            "type" : "VEC2"
        },
        {
            "bufferView" : 19,
            "componentType" : 5123,
            "count" : 810,
            "type" : "SCALAR"
        }
    ],
    "bufferViews" : [
        {
            "buffer" : 0,
            "byteLength" : 454740,
            "byteOffset" : 0
        },
        {
            "buffer" : 0,
            "byteLength" : 454740,
            "byteOffset" : 454740
        },
        {
            "buffer" : 0,
            "byteLength" : 303160,
            "byteOffset" : 909480
        },
        {
            "buffer" : 0,
            "byteLength" : 442368,
            "byteOffset" : 1212640
        },
        {
            "buffer" : 0,
            "byteLength" : 2052,
            "byteOffset" : 1655008
        },
        {
            "buffer" : 0,
            "byteLength" : 2052,
            "byteOffset" : 1657060
        },
        {
            "buffer" : 0,
            "byteLength" : 1368,
            "byteOffset" : 1659112
        },
        {
            "buffer" : 0,
            "byteLength" : 1728,
            "byteOffset" : 1660480
        },
        {
            "buffer" : 0,
            "byteLength" : 655788,
            "byteOffset" : 1662208
        },
        {
            "buffer" : 0,
            "byteLength" : 655788,
            "byteOffset" : 2317996
        },
        {
            "buffer" : 0,
            "byteLength" : 437192,
            "byteOffset" : 2973784
        },
        {
            "buffer" : 0,
            "byteLength" : 638976,
            "byteOffset" : 3410976
        },
        {
            "buffer" : 0,
            "byteLength" : 2916,
            "byteOffset" : 4049952
        },
        {
            "buffer" : 0,
            "byteLength" : 2916,
            "byteOffset" : 4052868
        },
        {
            "buffer" : 0,
            "byteLength" : 1944,
            "byteOffset" : 4055784
        },
        {
            "buffer" : 0,
            "byteLength" : 2496,
            "byteOffset" : 4057728
        },
        {
            "buffer" : 0,
            "byteLength" : 2892,
            "byteOffset" : 4060224
        },
        {
            "buffer" : 0,
            "byteLength" : 2892,
            "byteOffset" : 4063116
        },
        {
            "buffer" : 0,
            "byteLength" : 1928,
            "byteOffset" : 4066008
        },
        {
            "buffer" : 0,
            "byteLength" : 1620,
            "byteOffset" : 4067936
        }
    ],
    "samplers" : [
        {
            "magFilter" : 9729,
            "minFilter" : 9987
        }
    ],
    "buffers" : [
        {
            "byteLength" : 4069556,
            "uri" : "well_tunnel_room_2_end.bin"
        }
    ]
}
