{
    "asset" : {
        "generator" : "Khronos glTF Blender I/O v1.7.33",
        "version" : "2.0"
    },
    "scene" : 0,
    "scenes" : [
        {
            "name" : "Scene",
            "nodes" : [
                0
            ]
        }
    ],
    "nodes" : [
        {
            "mesh" : 0,
            "name" : "Cylinder.lp"
        }
    ],
    "materials" : [
        {
            "doubleSided" : true,
            "name" : "Well",
            "pbrMetallicRoughness" : {
                "baseColorFactor" : [
                    0.8000000715255737,
                    0.076444111764431,
                    0.05367552861571312,
                    1
                ],
                "metallicFactor" : 0,
                "roughnessFactor" : 0.5
            }
        }
    ],
    "meshes" : [
        {
            "name" : "Cylinder.004",
            "primitives" : [
                {
                    "attributes" : {
                        "POSITION" : 0,
                        "NORMAL" : 1,
                        "TEXCOORD_0" : 2
                    },
                    "indices" : 3,
                    "material" : 0
                }
            ]
        }
    ],
    "accessors" : [
        {
            "bufferView" : 0,
            "componentType" : 5126,
            "count" : 87255,
            "max" : [
                29.125532150268555,
                53.19881820678711,
                30.516620635986328
            ],
            "min" : [
                -29.59689712524414,
                -120.74900817871094,
                -29.36538314819336
            ],
            "type" : "VEC3"
        },
        {
            "bufferView" : 1,
            "componentType" : 5126,
            "count" : 87255,
            "type" : "VEC3"
        },
        {
            "bufferView" : 2,
            "componentType" : 5126,
            "count" : 87255,
            "type" : "VEC2"
        },
        {
            "bufferView" : 3,
            "componentType" : 5125,
            "count" : 87801,
            "type" : "SCALAR"
        }
    ],
    "bufferViews" : [
        {
            "buffer" : 0,
            "byteLength" : 1047060,
            "byteOffset" : 0
        },
        {
            "buffer" : 0,
            "byteLength" : 1047060,
            "byteOffset" : 1047060
        },
        {
            "buffer" : 0,
            "byteLength" : 698040,
            "byteOffset" : 2094120
        },
        {
            "buffer" : 0,
            "byteLength" : 351204,
            "byteOffset" : 2792160
        }
    ],
    "buffers" : [
        {
            "byteLength" : 3143364,
            "uri" : "well_cylinder.bin"
        }
    ]
}
