{
    "asset" : {
        "generator" : "Khronos glTF Blender I/O v1.7.33",
        "version" : "2.0"
    },
    "scene" : 0,
    "scenes" : [
        {
            "name" : "Scene",
            "nodes" : [
                0,
                1,
                2,
                3
            ]
        }
    ],
    "nodes" : [
        {
            "mesh" : 0,
            "name" : "TunnelRoom1",
            "rotation" : [
                0.6457847952842712,
                0.2880314886569977,
                -0.28803151845932007,
                0.6457846760749817
            ],
            "translation" : [
                44.932037353515625,
                6.738347053527832,
                12.144550323486328
            ]
        },
        {
            "mesh" : 1,
            "name" : "TunnelRoom1Collision",
            "rotation" : [
                0.6457847952842712,
                0.2880314886569977,
                -0.28803151845932007,
                0.6457846760749817
            ],
            "translation" : [
                44.932037353515625,
                6.738347053527832,
                12.144550323486328
            ]
        },
        {
            "mesh" : 2,
            "name" : "TunnelBridge1",
            "translation" : [
                15.412952423095703,
                8.858160018920898,
                -21.977073669433594
            ]
        },
        {
            "mesh" : 3,
            "name" : "TunnelBridge1Collision",
            "translation" : [
                15.412952423095703,
                8.858160018920898,
                -21.977073669433594
            ]
        }
    ],
    "materials" : [
        {
            "doubleSided" : true,
            "name" : "Material",
            "pbrMetallicRoughness" : {
                "baseColorFactor" : [
                    0.800000011920929,
                    0.800000011920929,
                    0.800000011920929,
                    1
                ],
                "metallicFactor" : 0,
                "roughnessFactor" : 0.5
            }
        },
        {
            "doubleSided" : true,
            "name" : "Collision",
            "pbrMetallicRoughness" : {
                "baseColorFactor" : [
                    0.8000000715255737,
                    0,
                    0.7826359868049622,
                    1
                ],
                "metallicFactor" : 0,
                "roughnessFactor" : 0.5
            }
        }
    ],
    "meshes" : [
        {
            "name" : "Plane.001",
            "primitives" : [
                {
                    "attributes" : {
                        "POSITION" : 0,
                        "NORMAL" : 1,
                        "TEXCOORD_0" : 2
                    },
                    "indices" : 3,
                    "material" : 0
                }
            ]
        },
        {
            "name" : "Plane.002",
            "primitives" : [
                {
                    "attributes" : {
                        "POSITION" : 4,
                        "NORMAL" : 5,
                        "TEXCOORD_0" : 6
                    },
                    "indices" : 7,
                    "material" : 1
                }
            ]
        },
        {
            "name" : "Cube.022",
            "primitives" : [
                {
                    "attributes" : {
                        "POSITION" : 8,
                        "NORMAL" : 9,
                        "TEXCOORD_0" : 10
                    },
                    "indices" : 11
                }
            ]
        },
        {
            "name" : "Cube.016",
            "primitives" : [
                {
                    "attributes" : {
                        "POSITION" : 12,
                        "NORMAL" : 13,
                        "TEXCOORD_0" : 14
                    },
                    "indices" : 15,
                    "material" : 1
                }
            ]
        }
    ],
    "accessors" : [
        {
            "bufferView" : 0,
            "componentType" : 5126,
            "count" : 10118,
            "max" : [
                26.037439346313477,
                19.622095108032227,
                4.011309623718262
            ],
            "min" : [
                -27.612760543823242,
                -18.045452117919922,
                -5.137880802154541
            ],
            "type" : "VEC3"
        },
        {
            "bufferView" : 1,
            "componentType" : 5126,
            "count" : 10118,
            "type" : "VEC3"
        },
        {
            "bufferView" : 2,
            "componentType" : 5126,
            "count" : 10118,
            "type" : "VEC2"
        },
        {
            "bufferView" : 3,
            "componentType" : 5123,
            "count" : 60207,
            "type" : "SCALAR"
        },
        {
            "bufferView" : 4,
            "componentType" : 5126,
            "count" : 206,
            "max" : [
                26.149375915527344,
                19.826576232910156,
                3.956430435180664
            ],
            "min" : [
                -27.42684555053711,
                -18.093935012817383,
                -5.222602844238281
            ],
            "type" : "VEC3"
        },
        {
            "bufferView" : 5,
            "componentType" : 5126,
            "count" : 206,
            "type" : "VEC3"
        },
        {
            "bufferView" : 6,
            "componentType" : 5126,
            "count" : 206,
            "type" : "VEC2"
        },
        {
            "bufferView" : 7,
            "componentType" : 5123,
            "count" : 1176,
            "type" : "SCALAR"
        },
        {
            "bufferView" : 8,
            "componentType" : 5126,
            "count" : 10665,
            "max" : [
                14.070149421691895,
                3.9145753383636475,
                10.266204833984375
            ],
            "min" : [
                -3.065418243408203,
                -4.693469524383545,
                -3.199721097946167
            ],
            "type" : "VEC3"
        },
        {
            "bufferView" : 9,
            "componentType" : 5126,
            "count" : 10665,
            "type" : "VEC3"
        },
        {
            "bufferView" : 10,
            "componentType" : 5126,
            "count" : 10665,
            "type" : "VEC2"
        },
        {
            "bufferView" : 11,
            "componentType" : 5123,
            "count" : 61440,
            "type" : "SCALAR"
        },
        {
            "bufferView" : 12,
            "componentType" : 5126,
            "count" : 54,
            "max" : [
                14.124825477600098,
                4.154825210571289,
                10.169707298278809
            ],
            "min" : [
                -3.271820068359375,
                -4.688843727111816,
                -3.3167223930358887
            ],
            "type" : "VEC3"
        },
        {
            "bufferView" : 13,
            "componentType" : 5126,
            "count" : 54,
            "type" : "VEC3"
        },
        {
            "bufferView" : 14,
            "componentType" : 5126,
            "count" : 54,
            "type" : "VEC2"
        },
        {
            "bufferView" : 15,
            "componentType" : 5123,
            "count" : 240,
            "type" : "SCALAR"
        }
    ],
    "bufferViews" : [
        {
            "buffer" : 0,
            "byteLength" : 121416,
            "byteOffset" : 0
        },
        {
            "buffer" : 0,
            "byteLength" : 121416,
            "byteOffset" : 121416
        },
        {
            "buffer" : 0,
            "byteLength" : 80944,
            "byteOffset" : 242832
        },
        {
            "buffer" : 0,
            "byteLength" : 120414,
            "byteOffset" : 323776
        },
        {
            "buffer" : 0,
            "byteLength" : 2472,
            "byteOffset" : 444192
        },
        {
            "buffer" : 0,
            "byteLength" : 2472,
            "byteOffset" : 446664
        },
        {
            "buffer" : 0,
            "byteLength" : 1648,
            "byteOffset" : 449136
        },
        {
            "buffer" : 0,
            "byteLength" : 2352,
            "byteOffset" : 450784
        },
        {
            "buffer" : 0,
            "byteLength" : 127980,
            "byteOffset" : 453136
        },
        {
            "buffer" : 0,
            "byteLength" : 127980,
            "byteOffset" : 581116
        },
        {
            "buffer" : 0,
            "byteLength" : 85320,
            "byteOffset" : 709096
        },
        {
            "buffer" : 0,
            "byteLength" : 122880,
            "byteOffset" : 794416
        },
        {
            "buffer" : 0,
            "byteLength" : 648,
            "byteOffset" : 917296
        },
        {
            "buffer" : 0,
            "byteLength" : 648,
            "byteOffset" : 917944
        },
        {
            "buffer" : 0,
            "byteLength" : 432,
            "byteOffset" : 918592
        },
        {
            "buffer" : 0,
            "byteLength" : 480,
            "byteOffset" : 919024
        }
    ],
    "buffers" : [
        {
            "byteLength" : 919504,
            "uri" : "well_tunnel_room_1.bin"
        }
    ]
}
