{
    "asset" : {
        "generator" : "Khronos glTF Blender I/O v1.7.33",
        "version" : "2.0"
    },
    "scene" : 0,
    "scenes" : [
        {
            "name" : "Scene",
            "nodes" : [
                0,
                1
            ]
        }
    ],
    "nodes" : [
        {
            "mesh" : 0,
            "name" : "TunnelEnd",
            "rotation" : [
                0,
                0.9591087102890015,
                0,
                0.283037930727005
            ],
            "translation" : [
                24.596803665161133,
                -37.959041595458984,
                41.99427032470703
            ]
        },
        {
            "mesh" : 1,
            "name" : "TunnelEndCollision",
            "rotation" : [
                0,
                0.9591087102890015,
                0,
                0.283037930727005
            ],
            "translation" : [
                24.596803665161133,
                -37.959041595458984,
                41.99427032470703
            ]
        }
    ],
    "materials" : [
        {
            "doubleSided" : true,
            "name" : "Collision",
            "pbrMetallicRoughness" : {
                "baseColorFactor" : [
                    0.8000000715255737,
                    0,
                    0.7826359868049622,
                    1
                ],
                "metallicFactor" : 0,
                "roughnessFactor" : 0.5
            }
        }
    ],
    "meshes" : [
        {
            "name" : "Cube.027",
            "primitives" : [
                {
                    "attributes" : {
                        "POSITION" : 0,
                        "NORMAL" : 1,
                        "TEXCOORD_0" : 2
                    },
                    "indices" : 3
                }
            ]
        },
        {
            "name" : "Cube.029",
            "primitives" : [
                {
                    "attributes" : {
                        "POSITION" : 4,
                        "NORMAL" : 5,
                        "TEXCOORD_0" : 6
                    },
                    "indices" : 7,
                    "material" : 0
                }
            ]
        }
    ],
    "accessors" : [
        {
            "bufferView" : 0,
            "componentType" : 5126,
            "count" : 54649,
            "max" : [
                19.391223907470703,
                10.929018020629883,
                26.956453323364258
            ],
            "min" : [
                -13.562836647033691,
                -17.318883895874023,
                -31.86464500427246
            ],
            "type" : "VEC3"
        },
        {
            "bufferView" : 1,
            "componentType" : 5126,
            "count" : 54649,
            "type" : "VEC3"
        },
        {
            "bufferView" : 2,
            "componentType" : 5126,
            "count" : 54649,
            "type" : "VEC2"
        },
        {
            "bufferView" : 3,
            "componentType" : 5123,
            "count" : 319488,
            "type" : "SCALAR"
        },
        {
            "bufferView" : 4,
            "componentType" : 5126,
            "count" : 243,
            "max" : [
                19.338863372802734,
                10.813560485839844,
                27.25696563720703
            ],
            "min" : [
                -13.807588577270508,
                -17.385498046875,
                -31.735069274902344
            ],
            "type" : "VEC3"
        },
        {
            "bufferView" : 5,
            "componentType" : 5126,
            "count" : 243,
            "type" : "VEC3"
        },
        {
            "bufferView" : 6,
            "componentType" : 5126,
            "count" : 243,
            "type" : "VEC2"
        },
        {
            "bufferView" : 7,
            "componentType" : 5123,
            "count" : 1248,
            "type" : "SCALAR"
        }
    ],
    "bufferViews" : [
        {
            "buffer" : 0,
            "byteLength" : 655788,
            "byteOffset" : 0
        },
        {
            "buffer" : 0,
            "byteLength" : 655788,
            "byteOffset" : 655788
        },
        {
            "buffer" : 0,
            "byteLength" : 437192,
            "byteOffset" : 1311576
        },
        {
            "buffer" : 0,
            "byteLength" : 638976,
            "byteOffset" : 1748768
        },
        {
            "buffer" : 0,
            "byteLength" : 2916,
            "byteOffset" : 2387744
        },
        {
            "buffer" : 0,
            "byteLength" : 2916,
            "byteOffset" : 2390660
        },
        {
            "buffer" : 0,
            "byteLength" : 1944,
            "byteOffset" : 2393576
        },
        {
            "buffer" : 0,
            "byteLength" : 2496,
            "byteOffset" : 2395520
        }
    ],
    "buffers" : [
        {
            "byteLength" : 2398016,
            "uri" : "well_tunnel_to_end.bin"
        }
    ]
}
