{
    "asset" : {
        "generator" : "Khronos glTF Blender I/O v1.7.33",
        "version" : "2.0"
    },
    "scene" : 0,
    "scenes" : [
        {
            "name" : "Scene",
            "nodes" : [
                0
            ]
        }
    ],
    "nodes" : [
        {
            "mesh" : 0,
            "name" : "Cylinder.lp"
        }
    ],
    "materials" : [
        {
            "doubleSided" : true,
            "name" : "Collision",
            "pbrMetallicRoughness" : {
                "baseColorFactor" : [
                    0.8000000715255737,
                    0,
                    0.7826359868049622,
                    1
                ],
                "metallicFactor" : 0,
                "roughnessFactor" : 0.5
            }
        }
    ],
    "meshes" : [
        {
            "name" : "Cylinder.004",
            "primitives" : [
                {
                    "attributes" : {
                        "POSITION" : 0,
                        "NORMAL" : 1,
                        "TEXCOORD_0" : 2
                    },
                    "indices" : 3,
                    "material" : 0
                }
            ]
        }
    ],
    "accessors" : [
        {
            "bufferView" : 0,
            "componentType" : 5126,
            "count" : 87227,
            "max" : [
                29.125532150268555,
                53.19881820678711,
                30.516620635986328
            ],
            "min" : [
                -29.59689712524414,
                -120.74900817871094,
                -29.36538314819336
            ],
            "type" : "VEC3"
        },
        {
            "bufferView" : 1,
            "componentType" : 5126,
            "count" : 87227,
            "type" : "VEC3"
        },
        {
            "bufferView" : 2,
            "componentType" : 5126,
            "count" : 87227,
            "type" : "VEC2"
        },
        {
            "bufferView" : 3,
            "componentType" : 5125,
            "count" : 87777,
            "type" : "SCALAR"
        }
    ],
    "bufferViews" : [
        {
            "buffer" : 0,
            "byteLength" : 1046724,
            "byteOffset" : 0
        },
        {
            "buffer" : 0,
            "byteLength" : 1046724,
            "byteOffset" : 1046724
        },
        {
            "buffer" : 0,
            "byteLength" : 697816,
            "byteOffset" : 2093448
        },
        {
            "buffer" : 0,
            "byteLength" : 351108,
            "byteOffset" : 2791264
        }
    ],
    "buffers" : [
        {
            "byteLength" : 3142372,
            "uri" : "well_cylinder.bin"
        }
    ]
}
