{
    "asset" : {
        "generator" : "Khronos glTF Blender I/O v1.7.33",
        "version" : "2.0"
    },
    "scene" : 0,
    "scenes" : [
        {
            "name" : "Scene",
            "nodes" : [
                0,
                1
            ]
        }
    ],
    "nodes" : [
        {
            "mesh" : 0,
            "name" : "TunnelRoom1",
            "rotation" : [
                0.6457847952842712,
                0.2880314886569977,
                -0.28803151845932007,
                0.6457846760749817
            ],
            "translation" : [
                44.932037353515625,
                6.738347053527832,
                12.144550323486328
            ]
        },
        {
            "mesh" : 1,
            "name" : "TunnelRoom1Collision",
            "rotation" : [
                0.6457847952842712,
                0.2880314886569977,
                -0.28803151845932007,
                0.6457846760749817
            ],
            "translation" : [
                44.932037353515625,
                6.738347053527832,
                12.144550323486328
            ]
        }
    ],
    "materials" : [
        {
            "doubleSided" : true,
            "name" : "Material",
            "pbrMetallicRoughness" : {
                "baseColorFactor" : [
                    0.800000011920929,
                    0.800000011920929,
                    0.800000011920929,
                    1
                ],
                "metallicFactor" : 0,
                "roughnessFactor" : 0.5
            }
        },
        {
            "doubleSided" : true,
            "name" : "Collision",
            "pbrMetallicRoughness" : {
                "baseColorFactor" : [
                    0.8000000715255737,
                    0,
                    0.7826359868049622,
                    1
                ],
                "metallicFactor" : 0,
                "roughnessFactor" : 0.5
            }
        }
    ],
    "meshes" : [
        {
            "name" : "Plane.001",
            "primitives" : [
                {
                    "attributes" : {
                        "POSITION" : 0,
                        "NORMAL" : 1,
                        "TEXCOORD_0" : 2
                    },
                    "indices" : 3,
                    "material" : 0
                }
            ]
        },
        {
            "name" : "Plane.002",
            "primitives" : [
                {
                    "attributes" : {
                        "POSITION" : 4,
                        "NORMAL" : 5,
                        "TEXCOORD_0" : 6
                    },
                    "indices" : 7,
                    "material" : 1
                }
            ]
        }
    ],
    "accessors" : [
        {
            "bufferView" : 0,
            "componentType" : 5126,
            "count" : 10118,
            "max" : [
                26.037439346313477,
                19.622095108032227,
                4.011309623718262
            ],
            "min" : [
                -27.612760543823242,
                -18.045452117919922,
                -5.137880802154541
            ],
            "type" : "VEC3"
        },
        {
            "bufferView" : 1,
            "componentType" : 5126,
            "count" : 10118,
            "type" : "VEC3"
        },
        {
            "bufferView" : 2,
            "componentType" : 5126,
            "count" : 10118,
            "type" : "VEC2"
        },
        {
            "bufferView" : 3,
            "componentType" : 5123,
            "count" : 60207,
            "type" : "SCALAR"
        },
        {
            "bufferView" : 4,
            "componentType" : 5126,
            "count" : 206,
            "max" : [
                26.149375915527344,
                19.826576232910156,
                3.956430435180664
            ],
            "min" : [
                -27.42684555053711,
                -18.093935012817383,
                -5.222602844238281
            ],
            "type" : "VEC3"
        },
        {
            "bufferView" : 5,
            "componentType" : 5126,
            "count" : 206,
            "type" : "VEC3"
        },
        {
            "bufferView" : 6,
            "componentType" : 5126,
            "count" : 206,
            "type" : "VEC2"
        },
        {
            "bufferView" : 7,
            "componentType" : 5123,
            "count" : 1176,
            "type" : "SCALAR"
        }
    ],
    "bufferViews" : [
        {
            "buffer" : 0,
            "byteLength" : 121416,
            "byteOffset" : 0
        },
        {
            "buffer" : 0,
            "byteLength" : 121416,
            "byteOffset" : 121416
        },
        {
            "buffer" : 0,
            "byteLength" : 80944,
            "byteOffset" : 242832
        },
        {
            "buffer" : 0,
            "byteLength" : 120414,
            "byteOffset" : 323776
        },
        {
            "buffer" : 0,
            "byteLength" : 2472,
            "byteOffset" : 444192
        },
        {
            "buffer" : 0,
            "byteLength" : 2472,
            "byteOffset" : 446664
        },
        {
            "buffer" : 0,
            "byteLength" : 1648,
            "byteOffset" : 449136
        },
        {
            "buffer" : 0,
            "byteLength" : 2352,
            "byteOffset" : 450784
        }
    ],
    "buffers" : [
        {
            "byteLength" : 453136,
            "uri" : "well_tunnel_to_room1.bin"
        }
    ]
}
