{
    "asset" : {
        "generator" : "Khronos glTF Blender I/O v1.7.33",
        "version" : "2.0"
    },
    "scene" : 0,
    "scenes" : [
        {
            "name" : "Scene",
            "nodes" : [
                0,
                1
            ]
        }
    ],
    "nodes" : [
        {
            "mesh" : 0,
            "name" : "Bridge",
            "translation" : [
                -7.465202331542969,
                -2.196223497390747,
                -11.53338623046875
            ]
        },
        {
            "mesh" : 1,
            "name" : "Bridge2",
            "rotation" : [
                0,
                0.653239905834198,
                0,
                0.7571510076522827
            ],
            "translation" : [
                -20.012104034423828,
                -14.182104110717773,
                -18.77850914001465
            ]
        }
    ],
    "materials" : [
        {
            "doubleSided" : true,
            "name" : "CutstoneBridge",
            "normalTexture" : {
                "index" : 0
            },
            "pbrMetallicRoughness" : {
                "baseColorTexture" : {
                    "index" : 1
                },
                "metallicFactor" : 0
            }
        }
    ],
    "meshes" : [
        {
            "name" : "Cube",
            "primitives" : [
                {
                    "attributes" : {
                        "POSITION" : 0,
                        "NORMAL" : 1,
                        "TEXCOORD_0" : 2
                    },
                    "indices" : 3,
                    "material" : 0
                }
            ]
        },
        {
            "name" : "Cube.017",
            "primitives" : [
                {
                    "attributes" : {
                        "POSITION" : 4,
                        "NORMAL" : 5,
                        "TEXCOORD_0" : 6
                    },
                    "indices" : 7,
                    "material" : 0
                }
            ]
        }
    ],
    "textures" : [
        {
            "sampler" : 0,
            "source" : 0
        },
        {
            "sampler" : 0,
            "source" : 1
        }
    ],
    "images" : [
        {
            "mimeType" : "image/jpeg",
            "name" : "RockBrown005_NRM_3K",
            "uri" : "RockBrown005_NRM_3K.jpg"
        },
        {
            "mimeType" : "image/jpeg",
            "name" : "RockBrown005_COL_VAR2_3K",
            "uri" : "RockBrown005_COL_VAR2_3K.jpg"
        }
    ],
    "accessors" : [
        {
            "bufferView" : 0,
            "componentType" : 5126,
            "count" : 341,
            "max" : [
                24.12195587158203,
                7.35562801361084,
                11.168793678283691
            ],
            "min" : [
                -21.40619468688965,
                -9.398563385009766,
                -11.84941577911377
            ],
            "type" : "VEC3"
        },
        {
            "bufferView" : 1,
            "componentType" : 5126,
            "count" : 341,
            "type" : "VEC3"
        },
        {
            "bufferView" : 2,
            "componentType" : 5126,
            "count" : 341,
            "type" : "VEC2"
        },
        {
            "bufferView" : 3,
            "componentType" : 5123,
            "count" : 852,
            "type" : "SCALAR"
        },
        {
            "bufferView" : 4,
            "componentType" : 5126,
            "count" : 344,
            "max" : [
                4.33237361907959,
                -6.812333106994629,
                22.53458595275879
            ],
            "min" : [
                -46.0700569152832,
                -24.134540557861328,
                -4.028098106384277
            ],
            "type" : "VEC3"
        },
        {
            "bufferView" : 5,
            "componentType" : 5126,
            "count" : 344,
            "type" : "VEC3"
        },
        {
            "bufferView" : 6,
            "componentType" : 5126,
            "count" : 344,
            "type" : "VEC2"
        },
        {
            "bufferView" : 7,
            "componentType" : 5123,
            "count" : 846,
            "type" : "SCALAR"
        }
    ],
    "bufferViews" : [
        {
            "buffer" : 0,
            "byteLength" : 4092,
            "byteOffset" : 0
        },
        {
            "buffer" : 0,
            "byteLength" : 4092,
            "byteOffset" : 4092
        },
        {
            "buffer" : 0,
            "byteLength" : 2728,
            "byteOffset" : 8184
        },
        {
            "buffer" : 0,
            "byteLength" : 1704,
            "byteOffset" : 10912
        },
        {
            "buffer" : 0,
            "byteLength" : 4128,
            "byteOffset" : 12616
        },
        {
            "buffer" : 0,
            "byteLength" : 4128,
            "byteOffset" : 16744
        },
        {
            "buffer" : 0,
            "byteLength" : 2752,
            "byteOffset" : 20872
        },
        {
            "buffer" : 0,
            "byteLength" : 1692,
            "byteOffset" : 23624
        }
    ],
    "samplers" : [
        {
            "magFilter" : 9729,
            "minFilter" : 9987
        }
    ],
    "buffers" : [
        {
            "byteLength" : 25316,
            "uri" : "well_cutsone_bridge.bin"
        }
    ]
}
