{
    "asset" : {
        "generator" : "Khronos glTF Blender I/O v1.7.33",
        "version" : "2.0"
    },
    "scene" : 0,
    "scenes" : [
        {
            "name" : "Scene",
            "nodes" : [
                0,
                1
            ]
        }
    ],
    "nodes" : [
        {
            "mesh" : 0,
            "name" : "TunnelBridge2",
            "rotation" : [
                0,
                0.9480497241020203,
                0,
                0.31812214851379395
            ],
            "translation" : [
                -52.55375289916992,
                -3.549623489379883,
                -3.3836135864257812
            ]
        },
        {
            "mesh" : 1,
            "name" : "TunnelBridge2Collision",
            "rotation" : [
                0,
                0.9480497241020203,
                0,
                0.31812214851379395
            ],
            "translation" : [
                -52.55375289916992,
                -3.549623489379883,
                -3.3836135864257812
            ]
        }
    ],
    "materials" : [
        {
            "doubleSided" : true,
            "name" : "Collision",
            "pbrMetallicRoughness" : {
                "baseColorFactor" : [
                    0.8000000715255737,
                    0,
                    0.7826359868049622,
                    1
                ],
                "metallicFactor" : 0,
                "roughnessFactor" : 0.5
            }
        }
    ],
    "meshes" : [
        {
            "name" : "Cube.012",
            "primitives" : [
                {
                    "attributes" : {
                        "POSITION" : 0,
                        "NORMAL" : 1,
                        "TEXCOORD_0" : 2
                    },
                    "indices" : 3
                }
            ]
        },
        {
            "name" : "Cube.023",
            "primitives" : [
                {
                    "attributes" : {
                        "POSITION" : 4,
                        "NORMAL" : 5,
                        "TEXCOORD_0" : 6
                    },
                    "indices" : 7,
                    "material" : 0
                }
            ]
        }
    ],
    "accessors" : [
        {
            "bufferView" : 0,
            "componentType" : 5126,
            "count" : 37895,
            "max" : [
                15.242530822753906,
                2.397381544113159,
                37.285404205322266
            ],
            "min" : [
                -15.424777030944824,
                -18.14044952392578,
                -3.199721097946167
            ],
            "type" : "VEC3"
        },
        {
            "bufferView" : 1,
            "componentType" : 5126,
            "count" : 37895,
            "type" : "VEC3"
        },
        {
            "bufferView" : 2,
            "componentType" : 5126,
            "count" : 37895,
            "type" : "VEC2"
        },
        {
            "bufferView" : 3,
            "componentType" : 5123,
            "count" : 221184,
            "type" : "SCALAR"
        },
        {
            "bufferView" : 4,
            "componentType" : 5126,
            "count" : 171,
            "max" : [
                15.656766891479492,
                2.518548011779785,
                37.73334884643555
            ],
            "min" : [
                -15.45457935333252,
                -18.169754028320312,
                -3.3167223930358887
            ],
            "type" : "VEC3"
        },
        {
            "bufferView" : 5,
            "componentType" : 5126,
            "count" : 171,
            "type" : "VEC3"
        },
        {
            "bufferView" : 6,
            "componentType" : 5126,
            "count" : 171,
            "type" : "VEC2"
        },
        {
            "bufferView" : 7,
            "componentType" : 5123,
            "count" : 864,
            "type" : "SCALAR"
        }
    ],
    "bufferViews" : [
        {
            "buffer" : 0,
            "byteLength" : 454740,
            "byteOffset" : 0
        },
        {
            "buffer" : 0,
            "byteLength" : 454740,
            "byteOffset" : 454740
        },
        {
            "buffer" : 0,
            "byteLength" : 303160,
            "byteOffset" : 909480
        },
        {
            "buffer" : 0,
            "byteLength" : 442368,
            "byteOffset" : 1212640
        },
        {
            "buffer" : 0,
            "byteLength" : 2052,
            "byteOffset" : 1655008
        },
        {
            "buffer" : 0,
            "byteLength" : 2052,
            "byteOffset" : 1657060
        },
        {
            "buffer" : 0,
            "byteLength" : 1368,
            "byteOffset" : 1659112
        },
        {
            "buffer" : 0,
            "byteLength" : 1728,
            "byteOffset" : 1660480
        }
    ],
    "buffers" : [
        {
            "byteLength" : 1662208,
            "uri" : "well_tunnel_to_bridge2.bin"
        }
    ]
}
