{
    "asset" : {
        "generator" : "Khronos glTF Blender I/O v1.7.33",
        "version" : "2.0"
    },
    "scene" : 0,
    "scenes" : [
        {
            "name" : "Scene",
            "nodes" : [
                0,
                1
            ]
        }
    ],
    "nodes" : [
        {
            "mesh" : 0,
            "name" : "TunnelBridge1",
            "translation" : [
                15.412952423095703,
                8.858160018920898,
                -21.977073669433594
            ]
        },
        {
            "mesh" : 1,
            "name" : "TunnelBridge1Collision",
            "translation" : [
                15.412952423095703,
                8.858160018920898,
                -21.977073669433594
            ]
        }
    ],
    "materials" : [
        {
            "doubleSided" : true,
            "name" : "Collision",
            "pbrMetallicRoughness" : {
                "baseColorFactor" : [
                    0.8000000715255737,
                    0,
                    0.7826359868049622,
                    1
                ],
                "metallicFactor" : 0,
                "roughnessFactor" : 0.5
            }
        }
    ],
    "meshes" : [
        {
            "name" : "Cube.022",
            "primitives" : [
                {
                    "attributes" : {
                        "POSITION" : 0,
                        "NORMAL" : 1,
                        "TEXCOORD_0" : 2
                    },
                    "indices" : 3
                }
            ]
        },
        {
            "name" : "Cube.016",
            "primitives" : [
                {
                    "attributes" : {
                        "POSITION" : 4,
                        "NORMAL" : 5,
                        "TEXCOORD_0" : 6
                    },
                    "indices" : 7,
                    "material" : 0
                }
            ]
        }
    ],
    "accessors" : [
        {
            "bufferView" : 0,
            "componentType" : 5126,
            "count" : 10665,
            "max" : [
                14.070149421691895,
                3.9145753383636475,
                10.266204833984375
            ],
            "min" : [
                -3.065418243408203,
                -4.693469524383545,
                -3.199721097946167
            ],
            "type" : "VEC3"
        },
        {
            "bufferView" : 1,
            "componentType" : 5126,
            "count" : 10665,
            "type" : "VEC3"
        },
        {
            "bufferView" : 2,
            "componentType" : 5126,
            "count" : 10665,
            "type" : "VEC2"
        },
        {
            "bufferView" : 3,
            "componentType" : 5123,
            "count" : 61440,
            "type" : "SCALAR"
        },
        {
            "bufferView" : 4,
            "componentType" : 5126,
            "count" : 54,
            "max" : [
                14.124825477600098,
                4.154825210571289,
                10.169707298278809
            ],
            "min" : [
                -3.271820068359375,
                -4.688843727111816,
                -3.3167223930358887
            ],
            "type" : "VEC3"
        },
        {
            "bufferView" : 5,
            "componentType" : 5126,
            "count" : 54,
            "type" : "VEC3"
        },
        {
            "bufferView" : 6,
            "componentType" : 5126,
            "count" : 54,
            "type" : "VEC2"
        },
        {
            "bufferView" : 7,
            "componentType" : 5123,
            "count" : 240,
            "type" : "SCALAR"
        }
    ],
    "bufferViews" : [
        {
            "buffer" : 0,
            "byteLength" : 127980,
            "byteOffset" : 0
        },
        {
            "buffer" : 0,
            "byteLength" : 127980,
            "byteOffset" : 127980
        },
        {
            "buffer" : 0,
            "byteLength" : 85320,
            "byteOffset" : 255960
        },
        {
            "buffer" : 0,
            "byteLength" : 122880,
            "byteOffset" : 341280
        },
        {
            "buffer" : 0,
            "byteLength" : 648,
            "byteOffset" : 464160
        },
        {
            "buffer" : 0,
            "byteLength" : 648,
            "byteOffset" : 464808
        },
        {
            "buffer" : 0,
            "byteLength" : 432,
            "byteOffset" : 465456
        },
        {
            "buffer" : 0,
            "byteLength" : 480,
            "byteOffset" : 465888
        }
    ],
    "buffers" : [
        {
            "byteLength" : 466368,
            "uri" : "well_tunnel_to_bridge.bin"
        }
    ]
}
