{
    "asset" : {
        "generator" : "Khronos glTF Blender I/O v1.7.33",
        "version" : "2.0"
    },
    "scene" : 0,
    "scenes" : [
        {
            "name" : "Scene",
            "nodes" : [
                0,
                1,
                2,
                3
            ]
        }
    ],
    "nodes" : [
        {
            "mesh" : 0,
            "name" : "EntryVorsprung",
            "rotation" : [
                0,
                -0.0266262199729681,
                0,
                0.999645471572876
            ],
            "scale" : [
                6.22728157043457,
                1,
                6.22728157043457
            ],
            "translation" : [
                1.793494462966919,
                22.522502899169922,
                -23.00222396850586
            ]
        },
        {
            "mesh" : 1,
            "name" : "Room1Vorsprung",
            "rotation" : [
                0,
                -0.9349851608276367,
                0,
                0.3546869158744812
            ],
            "scale" : [
                6.22728157043457,
                1,
                6.22728157043457
            ],
            "translation" : [
                13.569925308227539,
                2.6259686946868896,
                17.987285614013672
            ]
        },
        {
            "mesh" : 2,
            "name" : "BridgePlankHighQuality"
        },
        {
            "mesh" : 3,
            "name" : "BridgePlankCollision"
        }
    ],
    "materials" : [
        {
            "doubleSided" : true,
            "name" : "Material.001",
            "normalTexture" : {
                "index" : 0,
                "scale" : 0.9199999570846558
            },
            "pbrMetallicRoughness" : {
                "baseColorTexture" : {
                    "index" : 1
                },
                "metallicFactor" : 0
            }
        },
        {
            "doubleSided" : true,
            "name" : "WoodPlanksWell",
            "normalTexture" : {
                "index" : 2,
                "scale" : 2
            },
            "pbrMetallicRoughness" : {
                "baseColorTexture" : {
                    "index" : 3
                },
                "metallicFactor" : 0
            }
        },
        {
            "doubleSided" : true,
            "name" : "WoodPlanksWellCollision",
            "pbrMetallicRoughness" : {
                "baseColorFactor" : [
                    0.8000000715255737,
                    0,
                    0.6563884615898132,
                    1
                ],
                "metallicFactor" : 0
            }
        }
    ],
    "meshes" : [
        {
            "name" : "Cube.004",
            "primitives" : [
                {
                    "attributes" : {
                        "POSITION" : 0,
                        "NORMAL" : 1,
                        "TEXCOORD_0" : 2
                    },
                    "indices" : 3,
                    "material" : 0
                }
            ]
        },
        {
            "name" : "Cube.013",
            "primitives" : [
                {
                    "attributes" : {
                        "POSITION" : 4,
                        "NORMAL" : 5,
                        "TEXCOORD_0" : 6
                    },
                    "indices" : 7,
                    "material" : 0
                }
            ]
        },
        {
            "name" : "Cube.014",
            "primitives" : [
                {
                    "attributes" : {
                        "POSITION" : 8,
                        "NORMAL" : 9,
                        "TEXCOORD_0" : 10
                    },
                    "indices" : 11,
                    "material" : 1
                }
            ]
        },
        {
            "name" : "Cube.015",
            "primitives" : [
                {
                    "attributes" : {
                        "POSITION" : 12,
                        "NORMAL" : 13,
                        "TEXCOORD_0" : 14
                    },
                    "indices" : 15,
                    "material" : 2
                }
            ]
        }
    ],
    "textures" : [
        {
            "sampler" : 0,
            "source" : 0
        },
        {
            "sampler" : 0,
            "source" : 1
        },
        {
            "sampler" : 0,
            "source" : 2
        },
        {
            "sampler" : 0,
            "source" : 3
        }
    ],
    "images" : [
        {
            "mimeType" : "image/jpeg",
            "name" : "CliffJagged004_NRM_3K",
            "uri" : "CliffJagged004_NRM_3K.jpg"
        },
        {
            "mimeType" : "image/png",
            "name" : "CliffJaggedDarker3K",
            "uri" : "CliffJaggedDarker3K.png"
        },
        {
            "mimeType" : "image/jpeg",
            "name" : "WoodLogSidingRough001_NRM_2K",
            "uri" : "WoodLogSidingRough001_NRM_2K.jpg"
        },
        {
            "mimeType" : "image/jpeg",
            "name" : "WoodLogSidingRough001_COL_2K",
            "uri" : "WoodLogSidingRough001_COL_2K.jpg"
        }
    ],
    "accessors" : [
        {
            "bufferView" : 0,
            "componentType" : 5126,
            "count" : 223,
            "max" : [
                1.486275553703308,
                1,
                1.7535597085952759
            ],
            "min" : [
                -1.486275553703308,
                -4.7516984939575195,
                -1.311214804649353
            ],
            "type" : "VEC3"
        },
        {
            "bufferView" : 1,
            "componentType" : 5126,
            "count" : 223,
            "type" : "VEC3"
        },
        {
            "bufferView" : 2,
            "componentType" : 5126,
            "count" : 223,
            "type" : "VEC2"
        },
        {
            "bufferView" : 3,
            "componentType" : 5123,
            "count" : 738,
            "type" : "SCALAR"
        },
        {
            "bufferView" : 4,
            "componentType" : 5126,
            "count" : 209,
            "max" : [
                1.4721534252166748,
                1,
                0.7426713109016418
            ],
            "min" : [
                -1.469941258430481,
                -4.751681327819824,
                -1.311214804649353
            ],
            "type" : "VEC3"
        },
        {
            "bufferView" : 5,
            "componentType" : 5126,
            "count" : 209,
            "type" : "VEC3"
        },
        {
            "bufferView" : 6,
            "componentType" : 5126,
            "count" : 209,
            "type" : "VEC2"
        },
        {
            "bufferView" : 7,
            "componentType" : 5123,
            "count" : 684,
            "type" : "SCALAR"
        },
        {
            "bufferView" : 8,
            "componentType" : 5126,
            "count" : 11216,
            "max" : [
                11.523926734924316,
                23.294111251831055,
                28.30805206298828
            ],
            "min" : [
                -27.05036163330078,
                2.4930508136749268,
                -28.912799835205078
            ],
            "type" : "VEC3"
        },
        {
            "bufferView" : 9,
            "componentType" : 5126,
            "count" : 11216,
            "type" : "VEC3"
        },
        {
            "bufferView" : 10,
            "componentType" : 5126,
            "count" : 11216,
            "type" : "VEC2"
        },
        {
            "bufferView" : 11,
            "componentType" : 5123,
            "count" : 43008,
            "type" : "SCALAR"
        },
        {
            "bufferView" : 12,
            "componentType" : 5126,
            "count" : 5776,
            "max" : [
                11.916900634765625,
                26.424684524536133,
                29.10056495666504
            ],
            "min" : [
                -27.402326583862305,
                2.4893691539764404,
                -27.50110626220703
            ],
            "type" : "VEC3"
        },
        {
            "bufferView" : 13,
            "componentType" : 5126,
            "count" : 5776,
            "type" : "VEC3"
        },
        {
            "bufferView" : 14,
            "componentType" : 5126,
            "count" : 5776,
            "type" : "VEC2"
        },
        {
            "bufferView" : 15,
            "componentType" : 5123,
            "count" : 11856,
            "type" : "SCALAR"
        }
    ],
    "bufferViews" : [
        {
            "buffer" : 0,
            "byteLength" : 2676,
            "byteOffset" : 0
        },
        {
            "buffer" : 0,
            "byteLength" : 2676,
            "byteOffset" : 2676
        },
        {
            "buffer" : 0,
            "byteLength" : 1784,
            "byteOffset" : 5352
        },
        {
            "buffer" : 0,
            "byteLength" : 1476,
            "byteOffset" : 7136
        },
        {
            "buffer" : 0,
            "byteLength" : 2508,
            "byteOffset" : 8612
        },
        {
            "buffer" : 0,
            "byteLength" : 2508,
            "byteOffset" : 11120
        },
        {
            "buffer" : 0,
            "byteLength" : 1672,
            "byteOffset" : 13628
        },
        {
            "buffer" : 0,
            "byteLength" : 1368,
            "byteOffset" : 15300
        },
        {
            "buffer" : 0,
            "byteLength" : 134592,
            "byteOffset" : 16668
        },
        {
            "buffer" : 0,
            "byteLength" : 134592,
            "byteOffset" : 151260
        },
        {
            "buffer" : 0,
            "byteLength" : 89728,
            "byteOffset" : 285852
        },
        {
            "buffer" : 0,
            "byteLength" : 86016,
            "byteOffset" : 375580
        },
        {
            "buffer" : 0,
            "byteLength" : 69312,
            "byteOffset" : 461596
        },
        {
            "buffer" : 0,
            "byteLength" : 69312,
            "byteOffset" : 530908
        },
        {
            "buffer" : 0,
            "byteLength" : 46208,
            "byteOffset" : 600220
        },
        {
            "buffer" : 0,
            "byteLength" : 23712,
            "byteOffset" : 646428
        }
    ],
    "samplers" : [
        {
            "magFilter" : 9729,
            "minFilter" : 9987
        }
    ],
    "buffers" : [
        {
            "byteLength" : 670140,
            "uri" : "well_plank_bridge_with_rock.bin"
        }
    ]
}
