# Blender v3.0.1 OBJ File: 'Crystal.blend'
# www.blender.org
mtllib Crystal.mtl
o Plane
v -0.048795 0.000000 0.036976
v 0.048795 0.000000 0.036976
v -0.048795 0.000000 -0.036976
v 0.048795 0.000000 -0.036976
v 0.000000 0.000000 0.087035
v 0.000000 0.000000 -0.087035
v -0.021124 0.019421 0.030071
v 0.021124 0.019421 0.030071
v 0.000000 0.019421 0.051743
v 0.000000 0.019421 -0.051743
v -0.021124 0.019421 -0.030071
v 0.021124 0.019421 -0.030071
v -0.021124 -0.019421 0.030071
v 0.021124 -0.019421 0.030071
v 0.000000 -0.019421 0.051743
v 0.000000 -0.019421 -0.051743
v -0.021124 -0.019421 -0.030071
v 0.021124 -0.019421 -0.030071
vt 0.444288 0.245910
vt 0.983209 0.406797
vt 0.749101 0.537907
vt 0.545790 0.754090
vt 0.006869 0.593203
vt 0.240977 0.462093
vt 0.760505 0.750876
vt 0.436106 0.993131
vt 0.229573 0.249124
vt 0.553973 0.006869
vt 0.983209 0.958994
vt 0.006869 0.041006
vt 0.749101 0.537907
vt 0.444288 0.245910
vt 0.240977 0.462093
vt 0.545790 0.754090
vt 0.760505 0.750876
vt 0.229573 0.249124
vn -0.5745 0.8185 0.0000
vn 0.5745 0.8185 0.0000
vn 0.4433 0.7853 0.4321
vn -0.4433 0.7853 -0.4321
vn -0.4433 0.7853 0.4321
vn 0.4433 0.7853 -0.4321
vn 0.0000 1.0000 0.0000
vn -0.5745 -0.8185 0.0000
vn 0.5745 -0.8185 0.0000
vn 0.4433 -0.7853 0.4321
vn -0.4433 -0.7853 -0.4321
vn -0.4433 -0.7853 0.4321
vn 0.4433 -0.7853 -0.4321
vn 0.0000 -1.0000 0.0000
usemtl Crystal
s off
f 11/1/1 1/2/1 7/3/1
f 8/4/2 4/5/2 12/6/2
f 9/7/3 2/8/3 8/4/3
f 10/9/4 3/10/4 11/1/4
f 9/7/5 1/2/5 5/11/5
f 10/9/6 4/5/6 6/12/6
f 8/4/7 11/1/7 7/3/7
f 8/4/7 7/3/7 9/7/7
f 11/1/7 12/6/7 10/9/7
f 13/13/8 3/10/8 17/14/8
f 18/15/9 2/8/9 14/16/9
f 2/8/10 15/17/10 14/16/10
f 3/10/11 16/18/11 17/14/11
f 15/17/12 1/2/12 13/13/12
f 16/18/13 4/5/13 18/15/13
f 17/14/14 14/16/14 13/13/14
f 14/16/14 15/17/14 13/13/14
f 17/14/14 16/18/14 18/15/14
f 11/1/1 3/10/1 1/2/1
f 8/4/2 2/8/2 4/5/2
f 9/7/3 5/11/3 2/8/3
f 10/9/4 6/12/4 3/10/4
f 9/7/5 7/3/5 1/2/5
f 10/9/6 12/6/6 4/5/6
f 8/4/7 12/6/7 11/1/7
f 13/13/8 1/2/8 3/10/8
f 18/15/9 4/5/9 2/8/9
f 2/8/10 5/11/10 15/17/10
f 3/10/11 6/12/11 16/18/11
f 15/17/12 5/11/12 1/2/12
f 16/18/13 6/12/13 4/5/13
f 17/14/14 18/15/14 14/16/14
